<svg xmlns="http://www.w3.org/2000/svg" width="276" height="91.788" viewBox="0 0 276 91.788">
  <g id="Grupo_10012" data-name="Grupo 10012" transform="translate(-92.994 -1549.249)">
    <g id="Grupo_4" data-name="Grupo 4" transform="translate(92.994 1549.249)">
      <circle id="Elipse_1" data-name="Elipse 1" cx="45.894" cy="45.894" r="45.894"/>
      <path id="Caminho_1" data-name="Caminho 1" d="M227.17,1594.492c.031-.142-.01-.066.048-.18-.258.095-.048.179-.048.18Z" transform="translate(-144.339 -1566.504)" fill="#fff"/>
      <path id="Caminho_2" data-name="Caminho 2" d="M143.927,1563.5c20.787,0,37.638,16.607,37.638,37.092a36.766,36.766,0,0,1-.386,5.31l-.02-.018-.141-.035a5.473,5.473,0,0,0-5.055.763q-.135.111-.262.232a1.148,1.148,0,0,0-.323-.38c-.955-.725-2.626.238-3.437.8a5.11,5.11,0,0,0-1.973,2.212l-.326,1.222,2.417-1.006-.223,9.822,4.023-2.157v-7.52a6.729,6.729,0,0,1,.93-.882,3.523,3.523,0,0,1,1.133-.66h.734a.318.318,0,0,1,.078.008,3.946,3.946,0,0,1,.055,1.344c-.014.241-.028.482-.028.723v2.7l.018,1.541a37.651,37.651,0,0,1-34.853,23.073c-20.786,0-37.637-16.607-37.637-37.093s16.851-37.092,37.637-37.092Zm23.045,54.08,2.115-3.268.552.652c1.248,1.475-.811,4.588-1.832,5.779l-1.361,1.585a.844.844,0,0,1-.487.286,1.223,1.223,0,0,1-1.135-.6,7.526,7.526,0,0,1-.639-1.01c-.028-.05-.056-.1-.083-.152-.107.315-.217.627-.351.934a6.152,6.152,0,0,1-.981,1.568l-.151.176c-1.09,1.27-2.276,1.639-3.716.576l-.427-.315c-1.458-1.076-2.144-3.566-2.382-5.26s-.275-4.463.916-5.851l.6-.7a4.919,4.919,0,0,1,1.311-.932c.583-.319,1.19-.606,1.79-.894.447-.215.9-.429,1.337-.658a9.312,9.312,0,0,0,1.019-.589l.4-.28.372.32a4.929,4.929,0,0,1,1.19,2.121c.315.934.543,1.909.778,2.865a18.382,18.382,0,0,0,1.156,3.648Zm-5.546,3.388a3,3,0,0,0,.513-.663,7,7,0,0,0,.689-1.677,4.525,4.525,0,0,0,.141-2.144q-.3-1.112-.606-2.22c-.128-.455-.258-.91-.4-1.362-.051-.167-.12-.418-.194-.608a1.717,1.717,0,0,0-1.322.571c-.732.854-.457,3.115-.27,4.125a14.483,14.483,0,0,0,.782,2.743,5.573,5.573,0,0,0,.663,1.234Z" transform="translate(-98.085 -1554.706)" fill="#ec1c24"/>
      <circle id="Elipse_2" data-name="Elipse 2" cx="37.607" cy="37.607" r="37.607" transform="translate(8.287 8.462)" fill="#ec1e24"/>
      <g id="Grupo_1" data-name="Grupo 1" transform="translate(20.424 20.883)">
        <path id="Caminho_3" data-name="Caminho 3" d="M161.037,1637.895H141.978v-38.6H126.091v-16.2h50.833v16.2H161.037Zm-15.536-3.523h12.013v-38.6H173.4v-9.154H129.614v9.154H145.5Z" transform="translate(-126.091 -1583.09)"/>
      </g>
      <path id="Caminho_4" data-name="Caminho 4" d="M128.945,1585.945h47.31v12.677H160.368v38.6H144.832v-38.6H128.945v-12.677Z" transform="translate(-106.76 -1563.3)" fill="#fff"/>
      <path id="Caminho_5" data-name="Caminho 5" d="M230.6,1644.944c-.012-.018-.045-.07-.052-.083l-.028-.046c-.007-.01-.018-.032-.028-.047-.07.077-.114-.112-.04.125l.149.051Z" transform="translate(-145.611 -1585.823)" fill="#231f20"/>
      <path id="Caminho_6" data-name="Caminho 6" d="M235.283,1639.847l.078-.134-.123-.07c.054.1.044.061.046.2Z" transform="translate(-147.459 -1583.861)" fill="#231f20"/>
      <g id="Grupo_3" data-name="Grupo 3" transform="translate(2.629 3.299)">
        <path id="Caminho_7" data-name="Caminho 7" d="M97.257,1620.176a9.827,9.827,0,0,0,1.988.031l.248-3.784-1.988-.2c-.078,1.277-.249,2.58-.249,3.949Z" transform="translate(-97.256 -1578.194)" fill="#fff"/>
        <g id="Grupo_2" data-name="Grupo 2">
          <path id="Caminho_8" data-name="Caminho 8" d="M230.722,1602.545l1,3.637,1.951-.473c-.082-.706-.806-2.992-1.05-3.8a10.437,10.437,0,0,0-1.9.64Z" transform="translate(-148.359 -1572.71)" fill="#fff"/>
          <path id="Caminho_9" data-name="Caminho 9" d="M97.255,1625.756c.086.3.1,1.6.136,2.032l.217,1.936,1.985-.251-.317-3.806-2.02.089Z" transform="translate(-97.255 -1581.808)" fill="#fff"/>
          <path id="Caminho_10" data-name="Caminho 10" d="M234.433,1620.761l-.411.01c-.011,1.233.094,1.214,0,2.715v1.105l1.969.1a21.3,21.3,0,0,0-.01-4.014l-1.547.086Z" transform="translate(-149.623 -1579.897)" fill="#fff"/>
          <path id="Caminho_11" data-name="Caminho 11" d="M227.268,1593.83c-.058.114-.016.038-.048.18.62,1.261.972,2.081,1.526,3.379l1.845-.672a28.328,28.328,0,0,0-1.612-3.664c-.529.147-1.188.644-1.711.778Z" transform="translate(-147.018 -1569.32)" fill="#fff"/>
          <path id="Caminho_12" data-name="Caminho 12" d="M98.062,1610.7l1.983.294c.062-.683.56-2.939.729-3.755l-1.917-.457a28.469,28.469,0,0,0-.795,3.917Z" transform="translate(-97.564 -1574.577)" fill="#fff"/>
          <path id="Caminho_13" data-name="Caminho 13" d="M100.246,1601.421l1.879.545,1.3-3.551-1.884-.737a36.263,36.263,0,0,0-1.29,3.743Z" transform="translate(-98.4 -1571.091)" fill="#fff"/>
          <path id="Caminho_14" data-name="Caminho 14" d="M103.652,1592.613a11.77,11.77,0,0,0,1.809.8l1.749-3.308-1.749-.961a34.4,34.4,0,0,0-1.809,3.47Z" transform="translate(-99.704 -1567.823)" fill="#fff"/>
          <path id="Caminho_15" data-name="Caminho 15" d="M233.031,1611.519c.085.955.3,1.939.4,2.855.128,1.156-.349,1.011,2.1.689-.121-.442-.16-1.432-.24-1.994l-.336-1.911-1.922.362Z" transform="translate(-149.243 -1576.252)" fill="#fff"/>
          <path id="Caminho_16" data-name="Caminho 16" d="M222.486,1585.843l2.012,3.238c.306-.1,1.4-.732,1.752-.928l-2.145-3.385c-.523.306-1.089.776-1.619,1.075Z" transform="translate(-145.206 -1566.148)" fill="#fff"/>
          <path id="Caminho_17" data-name="Caminho 17" d="M232.9,1633.782l1.977.3c.037-.421.59-3.6.557-3.8s-.613-.175-.971-.2l-1.01-.083-.553,3.787Z" transform="translate(-149.192 -1583.465)" fill="#fff"/>
          <path id="Caminho_18" data-name="Caminho 18" d="M201.971,1678.509a19.3,19.3,0,0,0,1.046,1.7,4.414,4.414,0,0,0,.864-.5c.815-.49,1.7-1.125,2.456-1.683a10.722,10.722,0,0,0-1.15-1.59l-1.577,1.072a17.8,17.8,0,0,1-1.639,1Z" transform="translate(-137.351 -1601.247)" fill="#fff"/>
          <path id="Caminho_19" data-name="Caminho 19" d="M193.756,1683.009a11.706,11.706,0,0,0,.813,1.812,37.236,37.236,0,0,0,3.609-1.7,12.924,12.924,0,0,0-.987-1.717l-2.507,1.22a6.491,6.491,0,0,1-.929.385Z" transform="translate(-134.205 -1603.15)" fill="#fff"/>
          <path id="Caminho_20" data-name="Caminho 20" d="M230.54,1642.562c.01.016.022.037.028.048l.028.046c.007.012.04.065.052.083.548.054,1.244.5,1.77.525.231-.569.388-1.169.574-1.758a12.41,12.41,0,0,0,.492-1.9c0-.143.008-.1-.046-.2l-1.872-.392a31.3,31.3,0,0,1-1.027,3.555Z" transform="translate(-148.29 -1586.916)" fill="#fff"/>
          <path id="Caminho_21" data-name="Caminho 21" d="M222.192,1659.219c.252.22,1.242.85,1.611,1.079a27.23,27.23,0,0,0,2.143-3.381l-1.77-.929c-.175.523-1.88,2.9-1.983,3.231Z" transform="translate(-145.093 -1593.418)" fill="#fff"/>
          <path id="Caminho_22" data-name="Caminho 22" d="M216.355,1666.534l1.4,1.292a21.946,21.946,0,0,0,2.636-3.041c-.277-.246-1.185-.913-1.566-1.158l-1.209,1.458a12.248,12.248,0,0,0-1.257,1.45Z" transform="translate(-142.858 -1596.343)" fill="#fff"/>
          <path id="Caminho_23" data-name="Caminho 23" d="M226.941,1651.231l1.775.82a38.689,38.689,0,0,0,1.651-3.624l-1.856-.673-1.57,3.477Z" transform="translate(-146.912 -1590.265)" fill="#fff"/>
          <path id="Caminho_24" data-name="Caminho 24" d="M209.628,1672.969c.037.209.114.249.25.4l.993,1.136.759-.593c.277-.244.494-.443.752-.68l1.454-1.36-1.392-1.389c-.355.239-.57.624-1.005.918l-1.416,1.249c-.129.111-.23.161-.394.32Z" transform="translate(-140.282 -1598.968)" fill="#fff"/>
          <path id="Caminho_25" data-name="Caminho 25" d="M185.484,1688.217l3.842-1.181-.691-1.841c-1.213.412-2.433.828-3.68,1.165l.528,1.858Z" transform="translate(-130.836 -1604.601)" fill="#fff"/>
          <path id="Caminho_26" data-name="Caminho 26" d="M165.373,1556.581c2.215,0,2.8.014,5,.146l.154-1.918a29.261,29.261,0,0,0-5.219-.186l.068,1.958Z" transform="translate(-123.311 -1554.595)" fill="#fff"/>
          <path id="Caminho_27" data-name="Caminho 27" d="M161.028,1689.077l-3.825-.391-.3,1.951a35.65,35.65,0,0,0,4.028.4l.1-1.959Z" transform="translate(-120.093 -1605.938)" fill="#fff"/>
          <path id="Caminho_28" data-name="Caminho 28" d="M100.7,1644.217l-.028.107a22.02,22.02,0,0,0,1.353,3.647,7.642,7.642,0,0,0,1.357-.528c.1-.039.162-.057.23-.092l.214-.146-1.314-3.536-1.811.547Z" transform="translate(-98.564 -1588.701)" fill="#fff"/>
          <path id="Caminho_29" data-name="Caminho 29" d="M109.034,1661.189a37.415,37.415,0,0,0,2.354,3.229c.205-.087,1.295-1.011,1.561-1.224a4.161,4.161,0,0,0-.549-.737l-1.732-2.323c-.191.069-1.4.894-1.633,1.055Z" transform="translate(-101.765 -1595.005)" fill="#fff"/>
          <path id="Caminho_30" data-name="Caminho 30" d="M176.126,1690.4c.579.036,3.374-.589,3.991-.645l-.444-1.941-3.814.65.267,1.936Z" transform="translate(-127.352 -1605.606)" fill="#fff"/>
          <path id="Caminho_31" data-name="Caminho 31" d="M114.993,1668.673c.372.472.547.515.976,1.089.192.257,1.528,1.439,1.83,1.715a11.088,11.088,0,0,0,1.346-1.414,18.32,18.32,0,0,1-1.318-1.289c-.824-.814-.678-.73-1.313-1.417a6.6,6.6,0,0,0-1.521,1.316Z" transform="translate(-104.047 -1597.771)" fill="#fff"/>
          <path id="Caminho_32" data-name="Caminho 32" d="M170.62,1691.17c0-.657-.1-1.348-.158-2.006-1.874.137-2.021.12-3.849.148l-.019,2,.587,0,3.439-.138Z" transform="translate(-123.805 -1606.121)" fill="#fff"/>
          <path id="Caminho_33" data-name="Caminho 33" d="M108.31,1584.384c.228.157.587.375.829.536l.881.525c.167-.292.329-.506.508-.787.413-.646,1.211-1.682,1.682-2.33-.18-.2-1.256-.96-1.558-1.181a32.163,32.163,0,0,0-2.343,3.236Z" transform="translate(-101.488 -1564.762)" fill="#fff"/>
          <path id="Caminho_34" data-name="Caminho 34" d="M137.183,1560.368l.775,1.748,3.609-1.4-.722-1.846a25.14,25.14,0,0,0-3.663,1.5Z" transform="translate(-112.543 -1556.232)" fill="#fff"/>
          <path id="Caminho_35" data-name="Caminho 35" d="M210.084,1572.1c.1.146,2.495,2.249,2.87,2.577l1.354-1.323a2.5,2.5,0,0,0-.684-.773c-.14-.12-.266-.174-.409-.305-.737-.68-1.137-1-1.92-1.653-.373.5-.837.915-1.211,1.479Z" transform="translate(-140.457 -1560.731)" fill="#fff"/>
          <path id="Caminho_36" data-name="Caminho 36" d="M128.665,1564.727l1.128,1.681c.523-.346,1.055-.65,1.591-.984.313-.194.487-.285.829-.474a5.7,5.7,0,0,0,.861-.52l-.906-1.7c-.608.179-3.293,1.917-3.5,1.991Z" transform="translate(-109.282 -1557.712)" fill="#fff"/>
          <path id="Caminho_37" data-name="Caminho 37" d="M155.643,1555.24l.333,1.947,3.835-.458-.143-1.929a19.572,19.572,0,0,0-2.073.182c-.61.072-1.393.237-1.953.259Z" transform="translate(-119.612 -1554.673)" fill="#fff"/>
          <path id="Caminho_38" data-name="Caminho 38" d="M142.649,1685.058c-.038-.231.048-.021-.088-.22a31.768,31.768,0,0,1-3.43-1.308,12.339,12.339,0,0,0-.8,1.827c1.351.555,2.324.972,3.737,1.441l.584-1.74Z" transform="translate(-112.982 -1603.964)" fill="#fff"/>
          <path id="Caminho_39" data-name="Caminho 39" d="M121.95,1675.266l.073.07a22.361,22.361,0,0,0,3.167,2.329l1.053-1.561a3.361,3.361,0,0,0-.743-.57c-.577-.4-1.622-1.259-2.284-1.752a11.652,11.652,0,0,0-1.266,1.482Z" transform="translate(-106.711 -1600.232)" fill="#fff"/>
          <path id="Caminho_40" data-name="Caminho 40" d="M186.072,1557.484l-.468,1.7a34.179,34.179,0,0,1,3.676,1.176l.656-1.737-.046-.18a14.883,14.883,0,0,1-1.754-.588,11.665,11.665,0,0,0-1.83-.525l-.168-.033c0,.354.013.079-.067.189Z" transform="translate(-131.084 -1555.629)" fill="#fff"/>
          <path id="Caminho_41" data-name="Caminho 41" d="M120.956,1570.347l1.352,1.453,2.958-2.464-1.185-1.471a31.845,31.845,0,0,0-3.124,2.483Z" transform="translate(-106.33 -1559.676)" fill="#fff"/>
          <path id="Caminho_42" data-name="Caminho 42" d="M176.518,1557.186l3.816.709.394-1.918c-.636-.087-1.286-.284-1.955-.4l-2.006-.3-.25,1.908Z" transform="translate(-127.605 -1554.856)" fill="#fff"/>
          <path id="Caminho_43" data-name="Caminho 43" d="M114.111,1576.876l1.579,1.3c.357-.511,2.122-2.315,2.564-2.768l-1.383-1.38a21.1,21.1,0,0,0-2.066,2.119c-.22.229-.47.535-.694.733Z" transform="translate(-103.709 -1562.034)" fill="#fff"/>
          <path id="Caminho_44" data-name="Caminho 44" d="M104.3,1652.965c-.054.1-.016.045-.054.157l1.9,3.4,1.675-1.023c-.225-.493-.623-1.081-.9-1.6l-.874-1.72c-.567.128-1.192.622-1.745.786Z" transform="translate(-99.932 -1591.96)" fill="#fff"/>
          <path id="Caminho_45" data-name="Caminho 45" d="M194.327,1562.289a6.859,6.859,0,0,0,.826.4l2.665,1.3.894-1.7-3.575-1.775a16.869,16.869,0,0,0-.81,1.775Z" transform="translate(-134.424 -1556.861)" fill="#fff"/>
          <path id="Caminho_46" data-name="Caminho 46" d="M216.778,1578.59c.154.284.859.953,1.239,1.456l1.216,1.435a17.565,17.565,0,0,0,1.564-1.22l-2.613-2.975a9.791,9.791,0,0,0-1.406,1.3Z" transform="translate(-143.02 -1563.283)" fill="#fff"/>
          <path id="Caminho_47" data-name="Caminho 47" d="M151.124,1689.53a.369.369,0,0,0,.3-.115l.306-1.748-3.732-.91-.525,1.87,3.653.9Z" transform="translate(-116.483 -1605.2)" fill="#fff"/>
          <path id="Caminho_48" data-name="Caminho 48" d="M202.513,1566.657l1.6,1.044c.165.114.246.151.4.256l1.2.817c.218-.219.918-1.213,1.16-1.545l-3.322-2.248a7.969,7.969,0,0,0-.52.832c-.14.241-.363.587-.513.844Z" transform="translate(-137.558 -1558.572)" fill="#fff"/>
          <path id="Caminho_49" data-name="Caminho 49" d="M98.3,1635.291l.871,3.739,1.912-.539a31.326,31.326,0,0,1-.739-3.211c-.019-.1-.022-.143-.04-.209l-.107-.257-1.545.25c-.295.046-.352-.026-.352.228Z" transform="translate(-97.657 -1585.31)" fill="#fff"/>
          <path id="Caminho_50" data-name="Caminho 50" d="M129.792,1680.812l3.49,1.974c.17-.253.694-1.362.867-1.716-.141-.121-2-1.121-2.5-1.414l-.826-.494a14.443,14.443,0,0,0-1.032,1.65Z" transform="translate(-109.713 -1602.291)" fill="#fff"/>
          <path id="Caminho_51" data-name="Caminho 51" d="M146.7,1558.9c.166.135.022.059.2.1a8.917,8.917,0,0,0,.863-.24l2.749-.675-.412-1.9-3.918,1.016c.134.584.429,1.121.513,1.69Z" transform="translate(-115.992 -1555.209)" fill="#fff"/>
        </g>
      </g>
      <path id="Caminho_52" data-name="Caminho 52" d="M186.362,1557.458c.08-.11.066.165.067-.189l.168.033c-.064-.074.113-.079-.2-.075l-.035.231Z" transform="translate(-128.744 -1552.303)" fill="#fff"/>
      <path id="Caminho_53" data-name="Caminho 53" d="M153.39,1691.179c.081.044-.133.085.215.05l.083-.164a.368.368,0,0,1-.3.115Z" transform="translate(-116.12 -1603.55)" fill="#fff"/>
      <path id="Caminho_54" data-name="Caminho 54" d="M192.6,1559.332c.239,0,0-.148-.046-.18l.046.18Z" transform="translate(-131.114 -1553.041)" fill="#fff"/>
      <path id="Caminho_55" data-name="Caminho 55" d="M147.227,1560.688c-.183-.044-.039.031-.2-.1l.081.167c.249.018.029.018.123-.063Z" transform="translate(-113.681 -1553.589)" fill="#fff"/>
      <path id="Caminho_56" data-name="Caminho 56" d="M145.275,1685.87l.086-.136-.175-.085c.136.2.051-.01.088.22Z" transform="translate(-112.979 -1601.477)" fill="#fff"/>
      <path id="Caminho_57" data-name="Caminho 57" d="M104.2,1623.649c.038-.113,0-.058.054-.157-.244.1-.07.141-.054.157Z" transform="translate(-97.256 -1577.677)" fill="#fff"/>
      <path id="Caminho_58" data-name="Caminho 58" d="M100.635,1623.64l.029-.107-.09.091.062.017Z" transform="translate(-95.896 -1577.692)" fill="#fff"/>
    </g>
    <g id="Grupo_5" data-name="Grupo 5" transform="translate(193.558 1579.246)">
      <path id="Caminho_59" data-name="Caminho 59" d="M271.383,1612.362H266.32v15.162h-5.3v-15.162h-5.062v-4.283h15.428Z" transform="translate(-255.955 -1601.772)" fill="#fff"/>
      <path id="Caminho_60" data-name="Caminho 60" d="M292.652,1624.713H286.17l-.911,2.811h-5.651l7.339-19.445h4.9l7.339,19.445h-5.651Zm-1.366-4.283-1.875-5.86-1.875,5.86Z" transform="translate(-265.012 -1601.772)" fill="#fff"/>
      <path id="Caminho_61" data-name="Caminho 61" d="M331.013,1627.525l-.536-10.169-3.884,10.169h-2.759l-3.883-10.117-.536,10.117h-5.3l1.366-19.445h5.946l3.777,10.826,3.8-10.826h5.946l1.366,19.445Z" transform="translate(-278.223 -1601.772)" fill="#fff"/>
      <path id="Caminho_62" data-name="Caminho 62" d="M365.912,1624.713H359.43l-.911,2.811h-5.651l7.339-19.445h4.9l7.339,19.445H366.8Zm-1.366-4.283-1.875-5.86-1.875,5.86Z" transform="translate(-293.063 -1601.772)" fill="#fff"/>
      <path id="Caminho_63" data-name="Caminho 63" d="M388.371,1608.079h3.268l9.83,9.959-.134-9.959h5.3v19.445H403.4l-9.83-9.959.107,9.959h-5.3Z" transform="translate(-306.657 -1601.772)" fill="#fff"/>
      <path id="Caminho_64" data-name="Caminho 64" d="M439.425,1617.75c0,5.86-3.7,9.775-9.268,9.775H422.31v-19.445h7.848C435.729,1608.079,439.425,1611.942,439.425,1617.75Zm-5.464,0c0-3.232-1.446-5.387-3.643-5.387h-2.7v10.879h2.7C432.515,1623.241,433.961,1621.034,433.961,1617.75Z" transform="translate(-319.652 -1601.772)" fill="#fff"/>
      <path id="Caminho_65" data-name="Caminho 65" d="M464.259,1624.713h-6.482l-.911,2.811h-5.651l7.339-19.445h4.9l7.339,19.445h-5.652Zm-1.366-4.283-1.875-5.86-1.875,5.86Z" transform="translate(-330.72 -1601.772)" fill="#fff"/>
      <path id="Caminho_66" data-name="Caminho 66" d="M493.708,1621.06H492.02v6.464h-5.3v-19.445h8.223c4.125,0,6.884,2.6,6.884,6.491a6,6,0,0,1-2.919,5.308l4.5,7.646h-6.186Zm-1.687-4.283h1.848a2.257,2.257,0,0,0,2.518-2.207,1.989,1.989,0,0,0-2.009-2.208H492.02Z" transform="translate(-344.313 -1601.772)" fill="#fff"/>
      <path id="Caminho_67" data-name="Caminho 67" d="M531.729,1619.328v4.283H518.1v-19.446h13.473v4.283H523.4v3.206H530.6v4.283H523.4v3.39Zm-5.785-16.949h-4.286l3.4-4.52h5.892Z" transform="translate(-356.328 -1597.859)" fill="#fff"/>
    </g>
    <g id="Grupo_6" data-name="Grupo 6" transform="translate(192.37 1562.724)">
      <path id="Caminho_68" data-name="Caminho 68" d="M265.75,1577.5c0,3.817-2.229,6.417-5.724,6.417-3.6,0-6-2.567-6-6.417s2.364-6.417,6-6.417a6.093,6.093,0,0,1,4.154,1.419l-1.875,1.773a2.745,2.745,0,0,0-2.228-.828c-1.858,0-3.091,1.621-3.091,4.053s1.216,4.053,3.057,4.053a2.713,2.713,0,0,0,2.718-2.668h-2.415v-2.347h5.37C265.733,1576.86,265.75,1577.181,265.75,1577.5Z" transform="translate(-254.031 -1571.085)" fill="#fff"/>
      <path id="Caminho_69" data-name="Caminho 69" d="M286.49,1579.481h-1.554v4.373h-2.853v-12.5h4.948a3.911,3.911,0,0,1,4.222,4.053,3.794,3.794,0,0,1-1.959,3.445l2.9,5h-3.344Zm-1.554-2.364h1.521a1.684,1.684,0,0,0,1.857-1.706,1.545,1.545,0,0,0-1.588-1.688h-1.79Z" transform="translate(-264.772 -1571.19)" fill="#fff"/>
      <path id="Caminho_70" data-name="Caminho 70" d="M306.8,1579.464v-8.106h2.854v7.988a2.288,2.288,0,1,0,4.576,0v-7.988h2.853v8.106c0,2.736-2.06,4.56-5.133,4.56C308.857,1584.024,306.8,1582.2,306.8,1579.464Z" transform="translate(-274.235 -1571.19)" fill="#fff"/>
      <path id="Caminho_71" data-name="Caminho 71" d="M342.744,1575.5a4.135,4.135,0,0,1-4.424,4.34h-1.739v4.019h-2.854v-12.5h4.728A3.977,3.977,0,0,1,342.744,1575.5Zm-2.938.1a1.659,1.659,0,0,0-1.638-1.874h-1.587v3.749h1.587C339.232,1577.472,339.806,1576.729,339.806,1575.6Z" transform="translate(-284.546 -1571.19)" fill="#fff"/>
      <path id="Caminho_72" data-name="Caminho 72" d="M356.415,1577.5c0-3.85,2.448-6.417,6.112-6.417,3.648,0,6.1,2.567,6.1,6.417s-2.449,6.417-6.1,6.417C358.863,1583.919,356.415,1581.352,356.415,1577.5Zm9.271,0c0-2.431-1.267-4.053-3.158-4.053s-3.174,1.621-3.174,4.053,1.284,4.053,3.174,4.053S365.686,1579.934,365.686,1577.5Z" transform="translate(-293.234 -1571.085)" fill="#fff"/>
    </g>
    <g id="Grupo_7" data-name="Grupo 7" transform="translate(269.531 1557.531)">
      <path id="Caminho_73" data-name="Caminho 73" d="M385.112,1565.864a3.026,3.026,0,1,1-3.011-3.2A2.95,2.95,0,0,1,385.112,1565.864Zm-.717,0a2.321,2.321,0,1,0-2.294,2.6A2.336,2.336,0,0,0,384.395,1565.864Zm-1.6.368.737,1.312h-.963l-.594-1.127h-.327v1.127h-.86v-3.339h1.372a1.076,1.076,0,0,1,1.168,1.126A.994.994,0,0,1,382.8,1566.233Zm-1.147-.532h.327c.287,0,.471-.144.471-.369a.361.361,0,0,0-.389-.369h-.409Z" transform="translate(-379.069 -1562.669)" fill="#fff"/>
    </g>
    <g id="Grupo_8" data-name="Grupo 8" transform="translate(277.814 1613.089)">
      <path id="Caminho_74" data-name="Caminho 74" d="M394.5,1658.132a2.425,2.425,0,0,1-1.284-.329,1.622,1.622,0,0,1-.73-.949l.658-.247a1.249,1.249,0,0,0,.52.656,1.6,1.6,0,0,0,.865.23,1.466,1.466,0,0,0,.842-.227.79.79,0,0,0,.136-1.169,1.355,1.355,0,0,0-.57-.306l-.956-.255a1.907,1.907,0,0,1-.887-.48,1.232,1.232,0,0,1-.306-.889,1.31,1.31,0,0,1,.491-1.063,1.876,1.876,0,0,1,1.229-.4,2.337,2.337,0,0,1,1.132.262,1.38,1.38,0,0,1,.664.776l-.613.251a1.221,1.221,0,0,0-1.2-.679,1.235,1.235,0,0,0-.713.2.67.67,0,0,0-.3.592q0,.568.851.805l.968.26a1.31,1.31,0,0,1,1.1,1.4,1.389,1.389,0,0,1-.525,1.126A2.091,2.091,0,0,1,394.5,1658.132Z" transform="translate(-392.491 -1652.7)" fill="#fbb03b"/>
      <path id="Caminho_75" data-name="Caminho 75" d="M402.665,1658.1v-5.252h3.456v.64h-2.734v1.588h2.339v.639h-2.339v1.746h2.755v.64Z" transform="translate(-396.387 -1652.755)" fill="#fbb03b"/>
      <path id="Caminho_76" data-name="Caminho 76" d="M412.262,1658.1v-5.245h.88l1.548,3.237h.014l1.506-3.237h.887v5.245H416.4v-3.973l-.049-.017-1.422,2.965-.534.014-1.423-2.949h-.021v3.96Z" transform="translate(-400.061 -1652.76)" fill="#fbb03b"/>
      <path id="Caminho_77" data-name="Caminho 77" d="M424.322,1658.1v-5.245h1.969a1.792,1.792,0,0,1,1.248.429,1.492,1.492,0,0,1,.475,1.166,1.572,1.572,0,0,1-.46,1.144,1.735,1.735,0,0,1-1.3.469h-1.216v2.036Zm.722-2.647h1.073a1.329,1.329,0,0,0,.864-.255.91.91,0,0,0,.313-.747.9.9,0,0,0-.3-.731,1.2,1.2,0,0,0-.8-.253h-1.148Z" transform="translate(-404.679 -1652.76)" fill="#fbb03b"/>
      <path id="Caminho_78" data-name="Caminho 78" d="M434.012,1658.1v-5.245h1.918a1.835,1.835,0,0,1,1.251.42,1.471,1.471,0,0,1,.481,1.172,1.581,1.581,0,0,1-.3.956,1.466,1.466,0,0,1-.88.552l1.45,2.144h-.8l-1.392-2.059h-1v2.059Zm.722-2.669h1.08a1.3,1.3,0,0,0,.853-.251.908.908,0,0,0,.3-.741.869.869,0,0,0-.309-.735,1.378,1.378,0,0,0-.861-.238h-1.065Z" transform="translate(-408.389 -1652.76)" fill="#fbb03b"/>
      <path id="Caminho_79" data-name="Caminho 79" d="M443.953,1658.1v-5.252h3.456v.64h-2.734v1.588h2.339v.639h-2.339v1.746h2.755v.64Z" transform="translate(-412.196 -1652.755)" fill="#fbb03b"/>
      <path id="Caminho_80" data-name="Caminho 80" d="M458.839,1658.1v-5.252H462.3v.64h-2.734v1.588H461.9v.639h-2.339v1.746h2.756v.64Z" transform="translate(-417.896 -1652.755)" fill="#fbb03b"/>
      <path id="Caminho_81" data-name="Caminho 81" d="M468.437,1658.1v-5.245h.88l1.548,3.237h.014l1.506-3.237h.887v5.245h-.694v-3.973l-.049-.017-1.422,2.965-.534.014-1.423-2.949h-.021v3.96Z" transform="translate(-421.571 -1652.76)" fill="#fbb03b"/>
      <path id="Caminho_82" data-name="Caminho 82" d="M485.786,1658.1v-5.252h3.377v.64h-2.655v1.62h2.22v.64h-2.22v2.352Z" transform="translate(-428.213 -1652.755)" fill="#fbb03b"/>
      <path id="Caminho_83" data-name="Caminho 83" d="M494.929,1658.1v-5.245h1.918a1.835,1.835,0,0,1,1.251.42,1.471,1.471,0,0,1,.481,1.172,1.585,1.585,0,0,1-.3.956,1.466,1.466,0,0,1-.88.552l1.45,2.144h-.8l-1.392-2.059h-1v2.059Zm.722-2.669h1.08a1.3,1.3,0,0,0,.853-.251.908.908,0,0,0,.3-.741.869.869,0,0,0-.309-.735,1.378,1.378,0,0,0-.862-.238h-1.065Z" transform="translate(-431.714 -1652.76)" fill="#fbb03b"/>
      <path id="Caminho_84" data-name="Caminho 84" d="M504.87,1658.1v-5.252h3.456v.64h-2.734v1.588h2.339v.639h-2.339v1.746h2.756v.64Z" transform="translate(-435.521 -1652.755)" fill="#fbb03b"/>
      <path id="Caminho_85" data-name="Caminho 85" d="M514.468,1658.1v-5.252h.7l2.563,4.013h.027v-4.013h.694v5.252h-.715l-2.576-4.045h0v4.045Z" transform="translate(-439.196 -1652.755)" fill="#fbb03b"/>
      <path id="Caminho_86" data-name="Caminho 86" d="M526.167,1658.1v-4.634h-1.641v-.611h3.995v.611h-1.631v4.634Z" transform="translate(-443.047 -1652.76)" fill="#fbb03b"/>
      <path id="Caminho_87" data-name="Caminho 87" d="M534.611,1658.1v-5.252h3.456v.64h-2.734v1.588h2.339v.639h-2.339v1.746h2.756v.64Z" transform="translate(-446.908 -1652.755)" fill="#fbb03b"/>
    </g>
  </g>
</svg>
