<svg xmlns="http://www.w3.org/2000/svg" width="546" height="208.725" viewBox="0 0 546 208.725">
  <g id="effect_grupo" transform="translate(160 -2268.799)">
    <g id="Grupo_19" data-name="Grupo 19" transform="translate(-160 2268.799)">
      <g id="Grupo_18" data-name="Grupo 18">
        <path id="Caminho_94" data-name="Caminho 94" d="M108.137,2268.8a30.291,30.291,0,0,1,21.147,9.065l199.659,199.66H312.056l-197.2-197.2a26.785,26.785,0,0,0-18.684-8.044H-160V2268.8Z" transform="translate(160 -2268.799)" fill="#ec1e24"/>
        <path id="Caminho_95" data-name="Caminho 95" d="M88.355,2283.542a28.593,28.593,0,0,1,19.962,8.556l194.576,194.576H286.952L94.7,2294.424a25.288,25.288,0,0,0-17.637-7.594H-160v-3.288Z" transform="translate(160 -2277.95)" fill="#ec1e24"/>
        <path id="Caminho_96" data-name="Caminho 96" d="M68.573,2298.285a26.9,26.9,0,0,1,18.778,8.049l189.491,189.491h-15l-187.3-187.3a23.789,23.789,0,0,0-16.591-7.143H-160v-3.094Z" transform="translate(160 -2287.1)" fill="#ec1e24"/>
        <path id="Caminho_97" data-name="Caminho 97" d="M48.791,2313.027a25.2,25.2,0,0,1,17.594,7.541l184.406,184.407h-14.05L54.385,2322.617a22.287,22.287,0,0,0-15.544-6.692H-160v-2.9Z" transform="translate(160 -2296.251)" fill="#ec1e24"/>
      </g>
    </g>
    <path id="Caminho_98" data-name="Caminho 98" d="M34.3,2331.4A18.344,18.344,0,0,1,47.1,2336.89l135.673,135.673c-5.47,0-10.025.2-13.026-2.8L39.819,2339.833a16.223,16.223,0,0,0-11.314-4.871H-160V2331.4Z" transform="translate(0 -38.856)"/>
    <path id="Caminho_99" data-name="Caminho 99" d="M23.608,2351.424a18.344,18.344,0,0,1,12.805,5.49l98.881,98.88c-5.47,0-10.026.2-13.026-2.8l-80.6-80.6a16.224,16.224,0,0,0-11.315-4.871H-160v-16.1Z" transform="translate(0 -51.284)"/>
    <path id="Caminho_100" data-name="Caminho 100" d="M529.184,2444.578h4.8a30.29,30.29,0,0,1,21.146,9.065l132.984,132.984H671.23Z" transform="translate(-330.483 -109.104)" fill="#fbb03b"/>
    <path id="Caminho_101" data-name="Caminho 101" d="M641.9,2482.518h4.8a30.283,30.283,0,0,1,21.146,9.064l118.593,118.593H769.557Z" transform="translate(-400.445 -132.652)" fill="#fbb03b"/>
  </g>
</svg>
