<svg xmlns="http://www.w3.org/2000/svg" width="326" height="79" viewBox="0 0 326 79">
  <g id="Grupo_10100" data-name="Grupo 10100" transform="translate(-389 -1767)">
    <g id="Grupo_10031" data-name="Grupo 10031" transform="translate(-160.626 752.565)">
      <path id="Caminho_3897" data-name="Caminho 3897" d="M4.933,9.429l5.7-6.85A1.573,1.573,0,1,0,8.217.568L.361,9.994a1.87,1.87,0,0,0-.141.236.2.2,0,0,1-.11.2,1.509,1.509,0,0,0,0,1.131.2.2,0,0,0,.11.2,1.87,1.87,0,0,0,.141.236l7.856,9.427a1.573,1.573,0,1,0,2.42-2.011l-5.7-6.85A2.866,2.866,0,0,1,4.24,11,2.866,2.866,0,0,1,4.933,9.429Z" transform="translate(665.183 1065.26) rotate(180)" fill="#ec1e24"/>
      <path id="Caminho_3898" data-name="Caminho 3898" d="M4.933,9.429l5.7-6.85A1.573,1.573,0,1,0,8.217.568L.361,9.994a1.87,1.87,0,0,0-.141.236.2.2,0,0,1-.11.2,1.509,1.509,0,0,0,0,1.131.2.2,0,0,0,.11.2,1.87,1.87,0,0,0,.141.236l7.856,9.427a1.573,1.573,0,1,0,2.42-2.011l-5.7-6.85A2.866,2.866,0,0,1,4.24,11,2.866,2.866,0,0,1,4.933,9.429Z" transform="translate(673.09 1065.26) rotate(180)" fill="#fff"/>
      <path id="Caminho_3899" data-name="Caminho 3899" d="M4.933,9.429l5.7-6.85A1.573,1.573,0,1,0,8.217.568L.361,9.994a1.87,1.87,0,0,0-.141.236.2.2,0,0,1-.11.2,1.509,1.509,0,0,0,0,1.131.2.2,0,0,0,.11.2,1.87,1.87,0,0,0,.141.236l7.856,9.427a1.573,1.573,0,1,0,2.42-2.011l-5.7-6.85A2.866,2.866,0,0,1,4.24,11,2.866,2.866,0,0,1,4.933,9.429Z" transform="translate(657.275 1065.26) rotate(180)"/>
    </g>
    <g id="Grupo_10032" data-name="Grupo 10032" transform="translate(-37.626 752.565)">
      <path id="Caminho_3897-2" data-name="Caminho 3897" d="M4.933,9.429l5.7-6.85A1.573,1.573,0,1,0,8.217.568L.361,9.994a1.87,1.87,0,0,0-.141.236.2.2,0,0,1-.11.2,1.509,1.509,0,0,0,0,1.131.2.2,0,0,0,.11.2,1.87,1.87,0,0,0,.141.236l7.856,9.427a1.573,1.573,0,1,0,2.42-2.011l-5.7-6.85A2.866,2.866,0,0,1,4.24,11,2.866,2.866,0,0,1,4.933,9.429Z" transform="translate(665.183 1065.26) rotate(180)" fill="#ec1e24"/>
      <path id="Caminho_3898-2" data-name="Caminho 3898" d="M4.933,9.429l5.7-6.85A1.573,1.573,0,1,0,8.217.568L.361,9.994a1.87,1.87,0,0,0-.141.236.2.2,0,0,1-.11.2,1.509,1.509,0,0,0,0,1.131.2.2,0,0,0,.11.2,1.87,1.87,0,0,0,.141.236l7.856,9.427a1.573,1.573,0,1,0,2.42-2.011l-5.7-6.85A2.866,2.866,0,0,1,4.24,11,2.866,2.866,0,0,1,4.933,9.429Z" transform="translate(673.09 1065.26) rotate(180)" fill="#fff"/>
      <path id="Caminho_3899-2" data-name="Caminho 3899" d="M4.933,9.429l5.7-6.85A1.573,1.573,0,1,0,8.217.568L.361,9.994a1.87,1.87,0,0,0-.141.236.2.2,0,0,1-.11.2,1.509,1.509,0,0,0,0,1.131.2.2,0,0,0,.11.2,1.87,1.87,0,0,0,.141.236l7.856,9.427a1.573,1.573,0,1,0,2.42-2.011l-5.7-6.85A2.866,2.866,0,0,1,4.24,11,2.866,2.866,0,0,1,4.933,9.429Z" transform="translate(657.275 1065.26) rotate(180)"/>
    </g>
    <g id="goal" transform="translate(411.282 1789.707)">
      <circle id="Elipse_12" data-name="Elipse 12" cx="31.5" cy="31.5" r="31.5" transform="translate(-14.282 -14.707)" fill="#ec1e24"/>
      <path id="Caminho_3913" data-name="Caminho 3913" d="M89.726.3a1,1,0,0,0-.845-.282l-6.973,1A1,1,0,0,0,81.344,2.7l2.284,2.284L81.357,7.257A13.439,13.439,0,0,0,72.95,4.122,12.965,12.965,0,0,0,60,17.072a12.133,12.133,0,0,0,.421,3.061,2.7,2.7,0,0,1,1.376.037l3.232.922a9.6,9.6,0,0,1-1.045-4.02A8.975,8.975,0,0,1,72.95,8.107c3.616,0,8.965,2.849,8.965,8.966a8.975,8.975,0,0,1-8.965,8.965,8.844,8.844,0,0,1-3.96-.882l.861,3.062a2.944,2.944,0,0,1,0,1.462,13.693,13.693,0,0,0,3.095.343A12.965,12.965,0,0,0,85.9,17.072a12.486,12.486,0,0,0-3.115-8.427l2.251-2.251,2.284,2.284a1,1,0,0,0,1.691-.563l1-6.973A1,1,0,0,0,89.726.3Z" transform="translate(-56.015 -0.005)" fill="#fbb03b"/>
      <g id="Elipse_17" data-name="Elipse 17" transform="translate(-22.282 -22.707)" fill="none" stroke="#333" stroke-width="2" stroke-dasharray="6 6">
        <circle cx="39.5" cy="39.5" r="39.5" stroke="none"/>
        <circle cx="39.5" cy="39.5" r="38.5" fill="none"/>
      </g>
      <path id="Caminho_3914" data-name="Caminho 3914" d="M15.654,217.674a2.954,2.954,0,0,0,1.28.3,2.989,2.989,0,1,0-2.989-2.989,2.954,2.954,0,0,0,.3,1.28l-4.9,4.9L5.253,220a1,1,0,0,0-1.1.406L.167,226.387a1,1,0,0,0,.519,1.5l2.538.832.808,2.512a1,1,0,0,0,1.5.523l5.977-3.985a1,1,0,0,0,.407-1.1l-1.154-4.1Z" transform="translate(0.001 -197.918)" fill="#fbb03b"/>
      <path id="Caminho_3915" data-name="Caminho 3915" d="M156.973,163.951a5.785,5.785,0,0,1-.707-.048l-1.655,1.655a7.193,7.193,0,0,0,2.362.385,6.982,6.982,0,0,0,6.973-6.973c0-5.217-4.788-6.973-6.973-6.973A6.982,6.982,0,0,0,150,158.97a7.4,7.4,0,0,0,.478,2.269l1.615-1.615a5.608,5.608,0,0,1-.1-.654,4.987,4.987,0,0,1,4.981-4.981c.988,0,4.981.886,4.981,4.981A4.987,4.987,0,0,1,156.973,163.951Z" transform="translate(-140.038 -141.903)" fill="#fbb03b"/>
    </g>
    <g id="Grupo_10044" data-name="Grupo 10044" transform="translate(-63)">
      <circle id="Elipse_18" data-name="Elipse 18" cx="31.5" cy="31.5" r="31.5" transform="translate(592 1775)" fill="#333"/>
      <g id="Page-1" transform="translate(608 1788.757)">
        <g id="_037---Waypoint-Flag" data-name="037---Waypoint-Flag" transform="translate(0 -0.05)">
          <path id="Shape" d="M8.939,40.131l.65-.182a1.176,1.176,0,0,0,.816-1.449L2.971,11.894a1.47,1.47,0,0,0-1.811-1.02l-.084.023a1.47,1.47,0,0,0-1.02,1.811L7.49,39.315A1.176,1.176,0,0,0,8.939,40.131Z" transform="translate(0 -4.809)" fill="#fff"/>
          <path id="Shape-2" data-name="Shape" d="M37.651,17.679a28.17,28.17,0,0,1-6.48-4.458.579.579,0,0,1-.164-.591A83.343,83.343,0,0,0,33.144,1.559c.073-.621-.262-.8-.615-.378C25.6,9.47,13.607-.335,6.47,7.2a2.431,2.431,0,0,1,.2.505l4.823,17.271c7.15-7.442,19.1,2.3,26.016-5.968.353-.426.42-1.206.14-1.328Z" transform="translate(-2.53 -0.95)" fill="#fff"/>
        </g>
      </g>
    </g>
    <g id="Grupo_10097" data-name="Grupo 10097">
      <path id="Caminho_3981" data-name="Caminho 3981" d="M31.5,0A31.5,31.5,0,1,1,0,31.5,31.5,31.5,0,0,1,31.5,0Z" transform="translate(652 1775)" fill="#333"/>
      <g id="quality_1_" data-name="quality (1)" transform="translate(669 1787.333)">
        <g id="Grupo_10037" data-name="Grupo 10037" transform="translate(3.138 28.468)">
          <g id="Grupo_10036" data-name="Grupo 10036">
            <path id="Caminho_3916" data-name="Caminho 3916" d="M108.092,391.583a4.632,4.632,0,0,1-5.247.785,4.78,4.78,0,0,1-1.614-1.252l-2.428,5.37a.467.467,0,0,0,.551.642l1.768-.492a2.251,2.251,0,0,1,2.634,1.191l.8,1.652a.467.467,0,0,0,.846-.011l3.862-8.542A2.9,2.9,0,0,0,108.092,391.583Z" transform="translate(-98.758 -390.926)" fill="#fff"/>
          </g>
        </g>
        <g id="Grupo_10039" data-name="Grupo 10039" transform="translate(15.537 28.468)">
          <g id="Grupo_10038" data-name="Grupo 10038">
            <path id="Caminho_3917" data-name="Caminho 3917" d="M279.48,396.486l-2.428-5.37a4.778,4.778,0,0,1-1.614,1.252,4.632,4.632,0,0,1-5.247-.785,2.9,2.9,0,0,0-1.168-.657l3.862,8.542a.467.467,0,0,0,.846.011l.8-1.652a2.251,2.251,0,0,1,2.634-1.191l1.768.492a.467.467,0,0,0,.551-.642Z" transform="translate(-269.022 -390.926)" fill="#fff"/>
          </g>
        </g>
        <g id="Grupo_10041" data-name="Grupo 10041" transform="translate(0)">
          <g id="Grupo_10040" data-name="Grupo 10040">
            <path id="Caminho_3918" data-name="Caminho 3918" d="M83.568,15.132a4.74,4.74,0,0,1-1.424-6.241,2.929,2.929,0,0,0-3.4-4.26,4.74,4.74,0,0,1-5.768-2.777,2.929,2.929,0,0,0-5.449,0,4.74,4.74,0,0,1-5.768,2.777,2.929,2.929,0,0,0-3.4,4.26,4.74,4.74,0,0,1-1.424,6.241,2.929,2.929,0,0,0,1.212,5.312,4.74,4.74,0,0,1,3.991,5,2.929,2.929,0,0,0,4.909,2.364,4.739,4.739,0,0,1,6.4,0,2.929,2.929,0,0,0,4.909-2.364,4.74,4.74,0,0,1,3.991-5,2.929,2.929,0,0,0,1.212-5.312ZM70.255,24.462a9.585,9.585,0,1,1,9.585-9.585A9.6,9.6,0,0,1,70.255,24.462Z" transform="translate(-55.666)" fill="#fff"/>
          </g>
        </g>
        <g id="Grupo_10043" data-name="Grupo 10043" transform="translate(6.791 7.08)">
          <g id="Grupo_10042" data-name="Grupo 10042">
            <path id="Caminho_3919" data-name="Caminho 3919" d="M156.718,97.225a7.8,7.8,0,1,0,7.8,7.8A7.806,7.806,0,0,0,156.718,97.225Zm4,7.042-4.853,3.545a.894.894,0,0,1-1.258-.208l-1.452-2.067a.894.894,0,1,1,1.462-1.027l.928,1.322,4.118-3.008a.894.894,0,1,1,1.054,1.443Z" transform="translate(-148.92 -97.225)" fill="#fff"/>
          </g>
        </g>
      </g>
    </g>
  </g>
</svg>
