<svg id="Grupo_10048" data-name="Grupo 10048" xmlns="http://www.w3.org/2000/svg" width="60" height="60" viewBox="0 0 60 60">
  <ellipse id="Elipse_4" data-name="Elipse 4" cx="30" cy="30" rx="30" ry="30" transform="translate(0)" fill="#ec1e24"/>
  <g id="Grupo_14" data-name="Grupo 14" transform="translate(1.895 1.895)">
    <g id="Grupo_13" data-name="Grupo 13">
      <path id="Caminho_90" data-name="Caminho 90" d="M399.174,2035.583a28.105,28.105,0,1,1,28.105-28.105A28.138,28.138,0,0,1,399.174,2035.583Zm0-54.3a26.2,26.2,0,1,0,26.2,26.2A26.229,26.229,0,0,0,399.174,1981.279Z" transform="translate(-371.069 -1979.372)" fill="#fff"/>
    </g>
  </g>
  <g id="Grupo_16" data-name="Grupo 16" transform="translate(17.587 17.633)">
    <g id="Grupo_15" data-name="Grupo 15">
      <path id="Caminho_91" data-name="Caminho 91" d="M406.181,1996.554H395.042a6.844,6.844,0,0,0-6.844,6.844v11.139a6.844,6.844,0,0,0,6.844,6.844h11.139a6.843,6.843,0,0,0,6.843-6.844V2003.4A6.843,6.843,0,0,0,406.181,1996.554Zm4.838,17.954a4.866,4.866,0,0,1-4.866,4.866H395.07a4.866,4.866,0,0,1-4.866-4.866v-11.082a4.866,4.866,0,0,1,4.866-4.865h11.082a4.866,4.866,0,0,1,4.866,4.865Z" transform="translate(-388.198 -1996.554)" fill="#fff"/>
      <path id="Caminho_92" data-name="Caminho 92" d="M403.6,2005.415a6.542,6.542,0,1,0,6.542,6.543A6.542,6.542,0,0,0,403.6,2005.415Zm0,10.809a4.267,4.267,0,1,1,4.267-4.266A4.266,4.266,0,0,1,403.6,2016.224Z" transform="translate(-391.189 -1999.545)" fill="#fff"/>
      <path id="Caminho_93" data-name="Caminho 93" d="M417.866,2004.339a1.467,1.467,0,1,1-1.467-1.468A1.468,1.468,0,0,1,417.866,2004.339Z" transform="translate(-397.22 -1998.686)" fill="#fff"/>
    </g>
  </g>
</svg>
