<svg xmlns="http://www.w3.org/2000/svg" width="81" height="81" viewBox="0 0 81 81">
  <g id="Grupo_10021" data-name="Grupo 10021" transform="translate(-1002 -1303)">
    <circle id="Elipse_7" data-name="Elipse 7" cx="40.5" cy="40.5" r="40.5" transform="translate(1002 1303)" fill="#fff"/>
    <g id="Elipse_9" data-name="Elipse 9" transform="translate(1007 1308)" fill="#fff" stroke="#707070" stroke-width="1" stroke-dasharray="6 6">
      <circle cx="35.5" cy="35.5" r="35.5" stroke="none"/>
      <circle cx="35.5" cy="35.5" r="35" fill="none"/>
    </g>
    <g id="Grupo_10018" data-name="Grupo 10018" transform="translate(1701.739 2399.087) rotate(180)">
      <path id="Caminho_3897" data-name="Caminho 3897" d="M4.933,9.429l5.7-6.85A1.573,1.573,0,1,0,8.217.568L.361,9.994a1.87,1.87,0,0,0-.141.236.2.2,0,0,1-.11.2,1.509,1.509,0,0,0,0,1.131.2.2,0,0,0,.11.2,1.87,1.87,0,0,0,.141.236l7.856,9.427a1.573,1.573,0,1,0,2.42-2.011l-5.7-6.85A2.866,2.866,0,0,1,4.24,11,2.866,2.866,0,0,1,4.933,9.429Z" transform="translate(665.183 1065.26) rotate(180)" fill="#ec1e24"/>
      <path id="Caminho_3898" data-name="Caminho 3898" d="M4.933,9.429l5.7-6.85A1.573,1.573,0,1,0,8.217.568L.361,9.994a1.87,1.87,0,0,0-.141.236.2.2,0,0,1-.11.2,1.509,1.509,0,0,0,0,1.131.2.2,0,0,0,.11.2,1.87,1.87,0,0,0,.141.236l7.856,9.427a1.573,1.573,0,1,0,2.42-2.011l-5.7-6.85A2.866,2.866,0,0,1,4.24,11,2.866,2.866,0,0,1,4.933,9.429Z" transform="translate(673.09 1065.26) rotate(180)" fill="#fbb03b"/>
      <path id="Caminho_3899" data-name="Caminho 3899" d="M4.933,9.429l5.7-6.85A1.573,1.573,0,1,0,8.217.568L.361,9.994a1.87,1.87,0,0,0-.141.236.2.2,0,0,1-.11.2,1.509,1.509,0,0,0,0,1.131.2.2,0,0,0,.11.2,1.87,1.87,0,0,0,.141.236l7.856,9.427a1.573,1.573,0,1,0,2.42-2.011l-5.7-6.85A2.866,2.866,0,0,1,4.24,11,2.866,2.866,0,0,1,4.933,9.429Z" transform="translate(657.275 1065.26) rotate(180)"/>
    </g>
  </g>
</svg>
