<svg xmlns="http://www.w3.org/2000/svg" width="45" height="45" viewBox="0 0 45 45">
  <g id="icon_enviar_contato" transform="translate(12 13.712)">
    <path id="Caminho_3979" data-name="Caminho 3979" d="M19.5,0A19.5,19.5,0,1,1,0,19.5,19.5,19.5,0,0,1,19.5,0Z" transform="translate(-9 -10.712)" fill="#fff"/>
    <g id="Elipse_15" data-name="Elipse 15" transform="translate(-12 -13.712)" fill="none" stroke="#fff" stroke-width="1">
      <circle cx="22.5" cy="22.5" r="22.5" stroke="none"/>
      <circle cx="22.5" cy="22.5" r="22" fill="none"/>
    </g>
    <path id="Caminho_3976" data-name="Caminho 3976" d="M8.75,17.612V21.1a.564.564,0,0,0,1.018.334l2.039-2.775Z" transform="translate(-2.173 -4.374)" fill="#ec1e24"/>
    <path id="Caminho_3977" data-name="Caminho 3977" d="M17.8.1a.564.564,0,0,0-.588-.041L.3,8.9A.564.564,0,0,0,.381,9.929l4.7,1.607L15.1,2.975,7.347,12.31,15.227,15a.577.577,0,0,0,.182.03.563.563,0,0,0,.558-.48L18.033.647A.565.565,0,0,0,17.8.1Z" fill="#ec1e24"/>
  </g>
</svg>
