<svg xmlns="http://www.w3.org/2000/svg" width="14.916" height="12.236" viewBox="0 0 14.916 12.236">
  <g id="Grupo_10017" data-name="Grupo 10017" transform="translate(-646.274 -1043.262)">
    <path id="Caminho_3897" data-name="Caminho 3897" d="M2.744,5.244l3.172-3.81A.875.875,0,1,0,4.57.316L.2,5.559a1.04,1.04,0,0,0-.079.131A.111.111,0,0,1,.061,5.8a.84.84,0,0,0,0,.629.111.111,0,0,0,.061.114A1.04,1.04,0,0,0,.2,6.678L4.57,11.921A.875.875,0,1,0,5.916,10.8L2.744,6.992a1.594,1.594,0,0,1-.386-.874A1.594,1.594,0,0,1,2.744,5.244Z" transform="translate(656.792 1055.498) rotate(180)" fill="#ec1e24"/>
    <path id="Caminho_3898" data-name="Caminho 3898" d="M2.744,5.244l3.172-3.81A.875.875,0,1,0,4.57.316L.2,5.559a1.04,1.04,0,0,0-.079.131A.111.111,0,0,1,.061,5.8a.84.84,0,0,0,0,.629.111.111,0,0,0,.061.114A1.04,1.04,0,0,0,.2,6.678L4.57,11.921A.875.875,0,1,0,5.916,10.8L2.744,6.992a1.594,1.594,0,0,1-.386-.874A1.594,1.594,0,0,1,2.744,5.244Z" transform="translate(661.19 1055.498) rotate(180)" fill="#fbb03b"/>
    <path id="Caminho_3899" data-name="Caminho 3899" d="M2.744,5.244l3.172-3.81A.875.875,0,1,0,4.57.316L.2,5.559a1.04,1.04,0,0,0-.079.131A.111.111,0,0,1,.061,5.8a.84.84,0,0,0,0,.629.111.111,0,0,0,.061.114A1.04,1.04,0,0,0,.2,6.678L4.57,11.921A.875.875,0,1,0,5.916,10.8L2.744,6.992a1.594,1.594,0,0,1-.386-.874A1.594,1.594,0,0,1,2.744,5.244Z" transform="translate(652.393 1055.498) rotate(180)"/>
  </g>
</svg>
