<svg id="Grupo_10047" data-name="Grupo 10047" xmlns="http://www.w3.org/2000/svg" width="60" height="60" viewBox="0 0 60 60">
  <ellipse id="Elipse_3" data-name="Elipse 3" cx="30" cy="30" rx="30" ry="30" transform="translate(0)" fill="#ec1e24"/>
  <g id="Grupo_11" data-name="Grupo 11" transform="translate(1.894 1.895)">
    <g id="Grupo_10" data-name="Grupo 10">
      <path id="Caminho_88" data-name="Caminho 88" d="M313.947,2035.583a28.105,28.105,0,1,1,28.105-28.105A28.138,28.138,0,0,1,313.947,2035.583Zm0-54.3a26.2,26.2,0,1,0,26.2,26.2A26.229,26.229,0,0,0,313.947,1981.279Z" transform="translate(-285.841 -1979.372)" fill="#fff"/>
    </g>
  </g>
  <path id="Caminho_89" data-name="Caminho 89" d="M321.817,2010.2h-3.624v11.664h-5.374V2010.2h-2.555v-4.566h2.555v-2.955c0-2.113,1-5.421,5.421-5.421l3.98.017v4.432h-2.888a1.094,1.094,0,0,0-1.139,1.245v2.687h4.094Zm.626.137" transform="translate(-288.177 -1979.043)" fill="#fff"/>
</svg>
