<svg xmlns="http://www.w3.org/2000/svg" width="315.935" height="105.069" viewBox="0 0 315.935 105.069">
  <g id="Grupo_10046" data-name="Grupo 10046" transform="translate(-92.994 -1549.249)">
    <g id="Grupo_4" data-name="Grupo 4" transform="translate(92.994 1549.249)">
      <circle id="Elipse_1" data-name="Elipse 1" cx="52.535" cy="52.535" r="52.535"/>
      <path id="Caminho_1" data-name="Caminho 1" d="M227.181,1594.518c.036-.162-.012-.075.054-.205-.3.108-.055.2-.054.205Z" transform="translate(-132.365 -1562.48)" fill="#fff"/>
      <path id="Caminho_2" data-name="Caminho 2" d="M149.373,1563.5c23.795,0,43.083,19.01,43.083,42.459a42.087,42.087,0,0,1-.441,6.079l-.023-.021-.161-.04c-2.034-.517-4.1-.513-5.786.873q-.155.127-.3.265a1.316,1.316,0,0,0-.369-.435c-1.094-.83-3.006.273-3.934.92a5.85,5.85,0,0,0-2.259,2.532l-.373,1.4,2.766-1.152-.255,11.243,4.606-2.469v-8.608a7.709,7.709,0,0,1,1.065-1.009,4.033,4.033,0,0,1,1.3-.756h.841a.365.365,0,0,1,.089.009,4.517,4.517,0,0,1,.063,1.539c-.016.275-.032.552-.032.828v3.09l.021,1.764a43.1,43.1,0,0,1-39.9,26.411c-23.794,0-43.083-19.01-43.083-42.46s19.289-42.459,43.083-42.459Zm26.379,61.9,2.421-3.74.632.747c1.429,1.688-.928,5.252-2.1,6.615l-1.558,1.815a.965.965,0,0,1-.557.328,1.4,1.4,0,0,1-1.3-.686,8.617,8.617,0,0,1-.731-1.156c-.032-.057-.064-.116-.095-.174-.122.36-.248.718-.4,1.069a7.04,7.04,0,0,1-1.122,1.795l-.173.2c-1.247,1.454-2.605,1.876-4.253.66l-.489-.36c-1.669-1.232-2.455-4.082-2.727-6.021s-.315-5.109,1.049-6.7l.692-.806a5.631,5.631,0,0,1,1.5-1.067c.668-.365,1.362-.694,2.049-1.024.512-.246,1.026-.492,1.531-.753a10.665,10.665,0,0,0,1.166-.675l.462-.321.426.366a5.642,5.642,0,0,1,1.362,2.428c.36,1.069.622,2.186.891,3.28a21.038,21.038,0,0,0,1.324,4.176Zm-6.348,3.878a3.439,3.439,0,0,0,.588-.759,8.009,8.009,0,0,0,.789-1.919,5.179,5.179,0,0,0,.162-2.454q-.339-1.272-.694-2.542c-.146-.52-.3-1.042-.454-1.559-.059-.191-.137-.478-.223-.7a1.966,1.966,0,0,0-1.514.654c-.838.977-.523,3.565-.309,4.722a16.578,16.578,0,0,0,.9,3.14,6.378,6.378,0,0,0,.759,1.413Z" transform="translate(-96.898 -1553.434)" fill="#ec1c24"/>
      <circle id="Elipse_2" data-name="Elipse 2" cx="43.048" cy="43.048" r="43.048" transform="translate(9.487 9.687)" fill="#ec1e24"/>
      <g id="Grupo_1" data-name="Grupo 1" transform="translate(23.379 23.905)">
        <path id="Caminho_3" data-name="Caminho 3" d="M166.093,1645.825H144.276v-44.19H126.091V1583.09h58.188v18.545H166.093Zm-17.783-4.033H162.06V1597.6h18.186v-10.478H130.124V1597.6H148.31Z" transform="translate(-126.091 -1583.09)"/>
      </g>
      <path id="Caminho_4" data-name="Caminho 4" d="M128.945,1585.945H183.1v14.511H164.915v44.19H147.131v-44.19H128.945v-14.511Z" transform="translate(-103.55 -1560.023)" fill="#fff"/>
      <path id="Caminho_5" data-name="Caminho 5" d="M230.627,1644.969c-.014-.02-.052-.08-.06-.095l-.032-.052c-.008-.012-.021-.037-.033-.055-.08.088-.131-.128-.046.143l.17.059Z" transform="translate(-133.341 -1577.294)" fill="#231f20"/>
      <path id="Caminho_6" data-name="Caminho 6" d="M235.289,1639.877l.089-.153-.141-.081c.061.12.05.07.052.234Z" transform="translate(-134.758 -1575.79)" fill="#231f20"/>
      <g id="Grupo_3" data-name="Grupo 3" transform="translate(3.01 3.776)">
        <path id="Caminho_7" data-name="Caminho 7" d="M97.257,1620.747a11.254,11.254,0,0,0,2.276.036l.284-4.332-2.275-.224c-.09,1.462-.285,2.953-.285,4.52Z" transform="translate(-97.256 -1572.691)" fill="#fff"/>
        <g id="Grupo_2" data-name="Grupo 2">
          <path id="Caminho_8" data-name="Caminho 8" d="M230.722,1602.638l1.148,4.163,2.233-.542c-.094-.808-.923-3.425-1.2-4.354a11.94,11.94,0,0,0-2.179.733Z" transform="translate(-136.442 -1568.486)" fill="#fff"/>
          <path id="Caminho_9" data-name="Caminho 9" d="M97.255,1625.769c.1.348.113,1.827.155,2.326l.248,2.217,2.272-.288-.363-4.357-2.312.1Z" transform="translate(-97.255 -1575.462)" fill="#fff"/>
          <path id="Caminho_10" data-name="Caminho 10" d="M234.493,1620.773l-.47.011c-.013,1.411.108,1.39,0,3.107v1.265l2.253.112a24.387,24.387,0,0,0-.012-4.594l-1.771.1Z" transform="translate(-137.411 -1573.996)" fill="#fff"/>
          <path id="Caminho_11" data-name="Caminho 11" d="M227.274,1593.942c-.066.131-.018.043-.054.206.71,1.443,1.113,2.383,1.747,3.868l2.111-.769a32.406,32.406,0,0,0-1.845-4.195c-.606.169-1.36.737-1.959.89Z" transform="translate(-135.414 -1565.886)" fill="#fff"/>
          <path id="Caminho_12" data-name="Caminho 12" d="M98.062,1611.266l2.27.337c.071-.781.641-3.364.834-4.3l-2.194-.523a32.586,32.586,0,0,0-.91,4.484Z" transform="translate(-97.492 -1569.917)" fill="#fff"/>
          <path id="Caminho_13" data-name="Caminho 13" d="M100.246,1601.963l2.151.624,1.483-4.065-2.157-.843a41.5,41.5,0,0,0-1.477,4.285Z" transform="translate(-98.133 -1567.245)" fill="#fff"/>
          <path id="Caminho_14" data-name="Caminho 14" d="M103.652,1593.115a13.47,13.47,0,0,0,2.07.915l2-3.787-2-1.1a39.381,39.381,0,0,0-2.07,3.972Z" transform="translate(-99.133 -1564.739)" fill="#fff"/>
          <path id="Caminho_15" data-name="Caminho 15" d="M233.031,1611.572c.1,1.093.341,2.22.457,3.268.147,1.323-.4,1.157,2.4.788-.138-.506-.183-1.639-.275-2.283l-.384-2.188-2.2.415Z" transform="translate(-137.12 -1571.202)" fill="#fff"/>
          <path id="Caminho_16" data-name="Caminho 16" d="M222.486,1586l2.3,3.706c.35-.109,1.6-.838,2.005-1.062l-2.455-3.875c-.6.35-1.247.889-1.854,1.231Z" transform="translate(-134.024 -1563.454)" fill="#fff"/>
          <path id="Caminho_17" data-name="Caminho 17" d="M232.9,1634.33l2.263.348c.042-.482.675-4.115.638-4.353s-.7-.2-1.112-.234l-1.156-.095-.633,4.334Z" transform="translate(-137.08 -1576.733)" fill="#fff"/>
          <path id="Caminho_18" data-name="Caminho 18" d="M201.971,1678.81a22.081,22.081,0,0,0,1.2,1.94,5.042,5.042,0,0,0,.989-.569c.932-.561,1.943-1.288,2.811-1.926a12.268,12.268,0,0,0-1.317-1.82l-1.8,1.227a20.426,20.426,0,0,1-1.876,1.148Z" transform="translate(-128.001 -1590.368)" fill="#fff"/>
          <path id="Caminho_19" data-name="Caminho 19" d="M193.756,1683.241a13.4,13.4,0,0,0,.931,2.074,42.661,42.661,0,0,0,4.132-1.945,14.806,14.806,0,0,0-1.13-1.966l-2.869,1.4a7.45,7.45,0,0,1-1.063.44Z" transform="translate(-125.589 -1591.827)" fill="#fff"/>
          <path id="Caminho_20" data-name="Caminho 20" d="M230.54,1643.077c.011.018.025.042.032.054l.032.052c.008.014.046.074.06.095.627.061,1.424.569,2.026.6.265-.651.444-1.339.657-2.013a14.2,14.2,0,0,0,.563-2.176c0-.164.009-.115-.052-.234l-2.143-.449a35.812,35.812,0,0,1-1.175,4.07Z" transform="translate(-136.389 -1579.379)" fill="#fff"/>
          <path id="Caminho_21" data-name="Caminho 21" d="M222.192,1659.686c.289.252,1.421.973,1.844,1.235a31.168,31.168,0,0,0,2.453-3.87l-2.027-1.063c-.2.6-2.152,3.316-2.27,3.7Z" transform="translate(-133.938 -1584.365)" fill="#fff"/>
          <path id="Caminho_22" data-name="Caminho 22" d="M216.355,1666.955l1.6,1.479a25.12,25.12,0,0,0,3.018-3.481c-.317-.281-1.357-1.045-1.793-1.326l-1.384,1.668a14.02,14.02,0,0,0-1.439,1.659Z" transform="translate(-132.224 -1586.608)" fill="#fff"/>
          <path id="Caminho_23" data-name="Caminho 23" d="M226.941,1651.735l2.032.939a44.314,44.314,0,0,0,1.89-4.149l-2.124-.771-1.8,3.98Z" transform="translate(-135.332 -1581.947)" fill="#fff"/>
          <path id="Caminho_24" data-name="Caminho 24" d="M209.628,1673.329c.042.239.131.285.286.457l1.137,1.3.869-.679c.317-.279.566-.507.861-.779l1.664-1.557-1.594-1.59c-.407.274-.653.714-1.151,1.051l-1.621,1.43c-.148.126-.263.184-.451.366Z" transform="translate(-130.249 -1588.62)" fill="#fff"/>
          <path id="Caminho_25" data-name="Caminho 25" d="M185.561,1688.654l4.4-1.352-.79-2.108c-1.389.472-2.785.948-4.212,1.333l.6,2.127Z" transform="translate(-123.005 -1592.94)" fill="#fff"/>
          <path id="Caminho_26" data-name="Caminho 26" d="M165.383,1556.869c2.536,0,3.2.016,5.72.167l.177-2.2a33.509,33.509,0,0,0-5.975-.214l.078,2.242Z" transform="translate(-117.235 -1554.595)" fill="#fff"/>
          <path id="Caminho_27" data-name="Caminho 27" d="M161.625,1689.134l-4.378-.448-.346,2.234a40.8,40.8,0,0,0,4.611.457l.114-2.243Z" transform="translate(-114.768 -1593.965)" fill="#fff"/>
          <path id="Caminho_28" data-name="Caminho 28" d="M100.706,1644.3l-.032.123a25.2,25.2,0,0,0,1.548,4.175,8.747,8.747,0,0,0,1.553-.6c.115-.045.186-.066.263-.105l.244-.167-1.5-4.048-2.073.627Z" transform="translate(-98.259 -1580.748)" fill="#fff"/>
          <path id="Caminho_29" data-name="Caminho 29" d="M109.034,1661.341a42.836,42.836,0,0,0,2.694,3.7c.235-.1,1.482-1.157,1.786-1.4a4.762,4.762,0,0,0-.628-.843l-1.983-2.66c-.219.079-1.606,1.023-1.87,1.207Z" transform="translate(-100.713 -1585.582)" fill="#fff"/>
          <path id="Caminho_30" data-name="Caminho 30" d="M176.165,1690.778c.663.042,3.863-.674,4.568-.738l-.509-2.222-4.366.744.306,2.216Z" transform="translate(-120.334 -1593.71)" fill="#fff"/>
          <path id="Caminho_31" data-name="Caminho 31" d="M114.993,1668.863c.425.54.627.59,1.117,1.247.22.294,1.749,1.647,2.1,1.963a12.674,12.674,0,0,0,1.541-1.619,20.9,20.9,0,0,1-1.508-1.476c-.944-.932-.776-.836-1.5-1.622a7.551,7.551,0,0,0-1.741,1.506Z" transform="translate(-102.463 -1587.703)" fill="#fff"/>
          <path id="Caminho_32" data-name="Caminho 32" d="M171.2,1691.461c0-.752-.109-1.543-.181-2.3-2.145.157-2.313.138-4.406.169l-.022,2.289.672,0,3.937-.157Z" transform="translate(-117.614 -1594.106)" fill="#fff"/>
          <path id="Caminho_33" data-name="Caminho 33" d="M108.31,1584.853c.261.18.672.429.949.614l1.009.6c.191-.335.377-.579.582-.9.473-.739,1.387-1.926,1.926-2.667-.206-.229-1.437-1.1-1.784-1.352a36.809,36.809,0,0,0-2.681,3.7Z" transform="translate(-100.501 -1562.391)" fill="#fff"/>
          <path id="Caminho_34" data-name="Caminho 34" d="M137.183,1560.585l.887,2,4.132-1.6-.826-2.113a28.762,28.762,0,0,0-4.192,1.715Z" transform="translate(-108.978 -1555.85)" fill="#fff"/>
          <path id="Caminho_35" data-name="Caminho 35" d="M210.084,1572.314c.12.168,2.856,2.574,3.285,2.95l1.55-1.515a2.86,2.86,0,0,0-.783-.885c-.16-.138-.3-.2-.468-.35-.843-.778-1.3-1.149-2.2-1.893-.427.576-.958,1.048-1.387,1.693Z" transform="translate(-130.383 -1559.3)" fill="#fff"/>
          <path id="Caminho_36" data-name="Caminho 36" d="M128.665,1565.016l1.291,1.924c.6-.4,1.207-.745,1.821-1.126.359-.223.557-.326.949-.543a6.522,6.522,0,0,0,.986-.595l-1.037-1.94c-.7.2-3.77,2.195-4.011,2.279Z" transform="translate(-106.477 -1556.985)" fill="#fff"/>
          <path id="Caminho_37" data-name="Caminho 37" d="M155.643,1555.3l.381,2.228,4.39-.525-.164-2.208a22.418,22.418,0,0,0-2.373.208c-.7.082-1.594.271-2.235.3Z" transform="translate(-114.398 -1554.655)" fill="#fff"/>
          <path id="Caminho_38" data-name="Caminho 38" d="M143.274,1685.28c-.043-.264.054-.024-.1-.252a36.326,36.326,0,0,1-3.927-1.5,14.137,14.137,0,0,0-.918,2.091c1.547.636,2.66,1.113,4.278,1.65l.668-1.992Z" transform="translate(-109.314 -1592.451)" fill="#fff"/>
          <path id="Caminho_39" data-name="Caminho 39" d="M121.95,1675.481l.083.081a25.58,25.58,0,0,0,3.625,2.666l1.205-1.786a3.848,3.848,0,0,0-.85-.652c-.66-.455-1.857-1.441-2.614-2.005a13.336,13.336,0,0,0-1.449,1.7Z" transform="translate(-104.506 -1589.59)" fill="#fff"/>
          <path id="Caminho_40" data-name="Caminho 40" d="M186.139,1557.512l-.535,1.943a39.157,39.157,0,0,1,4.208,1.346l.751-1.988-.052-.206a17.026,17.026,0,0,1-2.008-.673,13.4,13.4,0,0,0-2.094-.6l-.192-.038c0,.405.015.091-.077.217Z" transform="translate(-123.195 -1555.388)" fill="#fff"/>
          <path id="Caminho_41" data-name="Caminho 41" d="M120.956,1570.707l1.548,1.663,3.386-2.821-1.357-1.684a36.432,36.432,0,0,0-3.576,2.842Z" transform="translate(-104.214 -1558.491)" fill="#fff"/>
          <path id="Caminho_42" data-name="Caminho 42" d="M176.518,1557.462l4.368.812.451-2.2c-.728-.1-1.472-.325-2.238-.458l-2.3-.341-.286,2.184Z" transform="translate(-120.527 -1554.795)" fill="#fff"/>
          <path id="Caminho_43" data-name="Caminho 43" d="M114.111,1577.289l1.808,1.483c.409-.586,2.429-2.65,2.935-3.168l-1.583-1.579a24.168,24.168,0,0,0-2.365,2.426c-.251.262-.538.613-.795.839Z" transform="translate(-102.204 -1560.299)" fill="#fff"/>
          <path id="Caminho_44" data-name="Caminho 44" d="M104.308,1653.079c-.062.114-.018.051-.061.18l2.176,3.893,1.918-1.171c-.258-.564-.713-1.237-1.033-1.833l-1-1.969c-.649.147-1.365.711-2,.9Z" transform="translate(-99.308 -1583.247)" fill="#fff"/>
          <path id="Caminho_45" data-name="Caminho 45" d="M194.327,1562.546a7.846,7.846,0,0,0,.946.461l3.05,1.485,1.023-1.946-4.092-2.031a19.306,19.306,0,0,0-.927,2.031Z" transform="translate(-125.756 -1556.333)" fill="#fff"/>
          <path id="Caminho_46" data-name="Caminho 46" d="M216.778,1578.779c.176.325.983,1.091,1.418,1.667l1.392,1.642a20.127,20.127,0,0,0,1.791-1.4l-2.992-3.406a11.2,11.2,0,0,0-1.609,1.493Z" transform="translate(-132.348 -1561.257)" fill="#fff"/>
          <path id="Caminho_47" data-name="Caminho 47" d="M151.652,1689.931a.421.421,0,0,0,.342-.131l.35-2-4.272-1.041-.6,2.14,4.181,1.033Z" transform="translate(-111.999 -1593.399)" fill="#fff"/>
          <path id="Caminho_48" data-name="Caminho 48" d="M202.513,1566.9l1.833,1.2c.189.13.281.173.454.293l1.371.935c.25-.251,1.051-1.388,1.327-1.769l-3.8-2.573a9.123,9.123,0,0,0-.6.952c-.16.276-.415.672-.587.966Z" transform="translate(-128.16 -1557.644)" fill="#fff"/>
          <path id="Caminho_49" data-name="Caminho 49" d="M98.3,1635.361l1,4.28,2.189-.618a35.871,35.871,0,0,1-.846-3.676c-.021-.114-.025-.163-.046-.24l-.122-.295-1.769.286c-.338.052-.4-.03-.4.261Z" transform="translate(-97.563 -1578.147)" fill="#fff"/>
          <path id="Caminho_50" data-name="Caminho 50" d="M129.792,1681.051l4,2.26c.195-.29.795-1.559.993-1.964-.161-.138-2.287-1.283-2.861-1.619l-.945-.566a16.527,16.527,0,0,0-1.182,1.889Z" transform="translate(-106.808 -1591.169)" fill="#fff"/>
          <path id="Caminho_51" data-name="Caminho 51" d="M146.778,1559.3c.19.155.025.068.235.119a10.237,10.237,0,0,0,.988-.275l3.146-.772-.472-2.17-4.485,1.164c.153.669.491,1.283.588,1.935Z" transform="translate(-111.623 -1555.066)" fill="#fff"/>
        </g>
      </g>
      <path id="Caminho_52" data-name="Caminho 52" d="M186.362,1557.491c.092-.125.076.189.077-.217l.192.038c-.073-.085.129-.091-.229-.086l-.04.265Z" transform="translate(-120.408 -1551.591)" fill="#fff"/>
      <path id="Caminho_53" data-name="Caminho 53" d="M153.39,1691.2c.093.051-.153.1.247.057l.1-.188a.422.422,0,0,1-.342.132Z" transform="translate(-110.727 -1590.887)" fill="#fff"/>
      <path id="Caminho_54" data-name="Caminho 54" d="M192.6,1559.358c.273,0,0-.169-.052-.206l.052.206Z" transform="translate(-122.225 -1552.157)" fill="#fff"/>
      <path id="Caminho_55" data-name="Caminho 55" d="M147.257,1560.7c-.209-.051-.044.036-.235-.119l.093.191c.285.021.033.021.141-.073Z" transform="translate(-108.857 -1552.577)" fill="#fff"/>
      <path id="Caminho_56" data-name="Caminho 56" d="M145.288,1685.9l.1-.155-.2-.1c.155.228.058-.012.1.252Z" transform="translate(-108.318 -1589.298)" fill="#fff"/>
      <path id="Caminho_57" data-name="Caminho 57" d="M104.211,1623.672c.043-.129,0-.066.061-.18-.279.113-.08.162-.061.18Z" transform="translate(-96.262 -1571.048)" fill="#fff"/>
      <path id="Caminho_58" data-name="Caminho 58" d="M100.644,1623.656l.033-.123-.1.1.071.019Z" transform="translate(-95.219 -1571.06)" fill="#fff"/>
    </g>
    <g id="Grupo_5" data-name="Grupo 5" transform="translate(208.108 1583.587)">
      <path id="Caminho_59" data-name="Caminho 59" d="M273.615,1612.982h-5.8v17.356H261.75v-17.356h-5.795v-4.9h17.66Z" transform="translate(-255.955 -1600.86)" fill="#fff"/>
      <path id="Caminho_60" data-name="Caminho 60" d="M294.54,1627.12h-7.42l-1.043,3.218h-6.469l8.4-22.259h5.612l8.4,22.259h-6.469Zm-1.564-4.9-2.146-6.708-2.147,6.708Z" transform="translate(-262.9 -1600.86)" fill="#fff"/>
      <path id="Caminho_61" data-name="Caminho 61" d="M333.459,1630.338l-.613-11.641-4.446,11.641h-3.158l-4.445-11.581-.613,11.581h-6.071l1.563-22.259h6.807l4.323,12.393,4.354-12.393h6.806l1.564,22.259Z" transform="translate(-273.031 -1600.86)" fill="#fff"/>
      <path id="Caminho_62" data-name="Caminho 62" d="M367.8,1627.12h-7.42l-1.043,3.218h-6.469l8.4-22.259h5.611l8.4,22.259h-6.47Zm-1.564-4.9-2.146-6.708-2.146,6.708Z" transform="translate(-284.41 -1600.86)" fill="#fff"/>
      <path id="Caminho_63" data-name="Caminho 63" d="M388.371,1608.079h3.74l11.252,11.4-.153-11.4h6.071v22.259h-3.71l-11.253-11.4.123,11.4h-6.071Z" transform="translate(-294.834 -1600.86)" fill="#fff"/>
      <path id="Caminho_64" data-name="Caminho 64" d="M441.9,1619.149c0,6.708-4.231,11.189-10.609,11.189H422.31v-22.259h8.983C437.671,1608.079,441.9,1612.5,441.9,1619.149Zm-6.255,0c0-3.7-1.655-6.167-4.17-6.167h-3.1v12.453h3.1C433.992,1625.435,435.647,1622.908,435.647,1619.149Z" transform="translate(-304.798 -1600.86)" fill="#fff"/>
      <path id="Caminho_65" data-name="Caminho 65" d="M466.147,1627.12h-7.42l-1.043,3.218h-6.469l8.4-22.259h5.611l8.4,22.259h-6.47Zm-1.564-4.9-2.146-6.708-2.146,6.708Z" transform="translate(-313.285 -1600.86)" fill="#fff"/>
      <path id="Caminho_66" data-name="Caminho 66" d="M494.719,1622.939h-1.931v7.4h-6.071v-22.259h9.413c4.721,0,7.88,2.977,7.88,7.43a6.865,6.865,0,0,1-3.342,6.076l5.15,8.753h-7.082Zm-1.931-4.9H494.9a2.584,2.584,0,0,0,2.882-2.526,2.277,2.277,0,0,0-2.3-2.527h-2.7Z" transform="translate(-323.709 -1600.86)" fill="#fff"/>
      <path id="Caminho_67" data-name="Caminho 67" d="M533.7,1622.435v4.9H518.1v-22.259h15.422v4.9h-9.352v3.67h8.248v4.9h-8.248v3.88Zm-6.622-19.4h-4.906l3.894-5.174h6.745Z" transform="translate(-332.922 -1597.859)" fill="#fff"/>
    </g>
    <g id="Grupo_6" data-name="Grupo 6" transform="translate(206.749 1564.674)">
      <path id="Caminho_68" data-name="Caminho 68" d="M267.446,1578.43c0,4.369-2.551,7.345-6.552,7.345-4.118,0-6.863-2.938-6.863-7.345s2.706-7.345,6.863-7.345a6.973,6.973,0,0,1,4.755,1.624l-2.146,2.029a3.143,3.143,0,0,0-2.551-.947c-2.127,0-3.538,1.856-3.538,4.639s1.392,4.639,3.5,4.639a3.106,3.106,0,0,0,3.112-3.054H261.26v-2.687h6.147C267.426,1577.7,267.446,1578.063,267.446,1578.43Z" transform="translate(-254.031 -1571.085)" fill="#fff"/>
      <path id="Caminho_69" data-name="Caminho 69" d="M287.128,1580.656h-1.779v5.006h-3.266v-14.3h5.664a4.477,4.477,0,0,1,4.832,4.64,4.343,4.343,0,0,1-2.242,3.944l3.325,5.721h-3.828Zm-1.779-2.706h1.741a1.928,1.928,0,0,0,2.126-1.952,1.768,1.768,0,0,0-1.818-1.933h-2.049Z" transform="translate(-262.267 -1571.165)" fill="#fff"/>
      <path id="Caminho_70" data-name="Caminho 70" d="M306.8,1580.636v-9.278h3.267v9.144a2.619,2.619,0,1,0,5.239,0v-9.144h3.266v9.278c0,3.132-2.358,5.219-5.876,5.219C309.155,1585.856,306.8,1583.769,306.8,1580.636Z" transform="translate(-269.523 -1571.165)" fill="#fff"/>
      <path id="Caminho_71" data-name="Caminho 71" d="M344.049,1576.094a4.733,4.733,0,0,1-5.064,4.968h-1.991v4.6h-3.267v-14.3h5.412A4.553,4.553,0,0,1,344.049,1576.094Zm-3.363.116a1.9,1.9,0,0,0-1.875-2.146h-1.816v4.291h1.816C340.029,1578.356,340.686,1577.506,340.686,1576.21Z" transform="translate(-277.431 -1571.165)" fill="#fff"/>
      <path id="Caminho_72" data-name="Caminho 72" d="M356.415,1578.43c0-4.407,2.8-7.345,7-7.345,4.175,0,6.978,2.939,6.978,7.345s-2.8,7.345-6.978,7.345C359.217,1585.776,356.415,1582.838,356.415,1578.43Zm10.612,0c0-2.783-1.45-4.639-3.615-4.639s-3.634,1.856-3.634,4.639,1.469,4.639,3.634,4.639S367.027,1581.214,367.027,1578.43Z" transform="translate(-284.092 -1571.085)" fill="#fff"/>
    </g>
    <g id="Grupo_7" data-name="Grupo 7" transform="translate(295.075 1558.729)">
      <path id="Caminho_73" data-name="Caminho 73" d="M385.986,1566.327a3.464,3.464,0,1,1-3.446-3.658A3.377,3.377,0,0,1,385.986,1566.327Zm-.821,0c0-1.806-1.055-3-2.626-3-1.594,0-2.65,1.2-2.65,3s1.055,2.977,2.65,2.977C384.11,1569.3,385.165,1568.132,385.165,1566.327Zm-1.829.422.844,1.5h-1.1l-.68-1.29h-.374v1.29h-.985v-3.822h1.57a1.231,1.231,0,0,1,1.337,1.289A1.137,1.137,0,0,1,383.336,1566.748Zm-1.312-.609h.374c.328,0,.54-.165.54-.422a.413.413,0,0,0-.446-.422h-.468Z" transform="translate(-379.069 -1562.669)" fill="#fff"/>
    </g>
    <g id="Grupo_8" data-name="Grupo 8" transform="translate(304.556 1622.326)">
      <path id="Caminho_74" data-name="Caminho 74" d="M394.8,1658.918a2.775,2.775,0,0,1-1.469-.377,1.856,1.856,0,0,1-.836-1.086l.753-.283a1.428,1.428,0,0,0,.6.751,1.827,1.827,0,0,0,.99.263,1.679,1.679,0,0,0,.964-.26.9.9,0,0,0,.155-1.338,1.549,1.549,0,0,0-.653-.35l-1.094-.292a2.185,2.185,0,0,1-1.015-.55,1.41,1.41,0,0,1-.35-1.018,1.5,1.5,0,0,1,.562-1.217,2.148,2.148,0,0,1,1.406-.46,2.675,2.675,0,0,1,1.3.3,1.58,1.58,0,0,1,.76.888l-.7.288a1.4,1.4,0,0,0-1.371-.777,1.413,1.413,0,0,0-.816.233.767.767,0,0,0-.342.678q0,.65.974.922l1.108.3a1.5,1.5,0,0,1,1.257,1.606,1.59,1.59,0,0,1-.6,1.289A2.392,2.392,0,0,1,394.8,1658.918Z" transform="translate(-392.491 -1652.7)" fill="#fbb03b"/>
      <path id="Caminho_75" data-name="Caminho 75" d="M402.665,1658.857v-6.012h3.956v.732h-3.129v1.818h2.677v.732h-2.677v2h3.154v.732Z" transform="translate(-395.478 -1652.743)" fill="#fbb03b"/>
      <path id="Caminho_76" data-name="Caminho 76" d="M412.262,1658.861v-6h1.007l1.772,3.705h.016l1.724-3.705H417.8v6H417v-4.548l-.056-.019-1.628,3.394-.611.016-1.629-3.376h-.024v4.533Z" transform="translate(-398.296 -1652.746)" fill="#fbb03b"/>
      <path id="Caminho_77" data-name="Caminho 77" d="M424.322,1658.861v-6h2.254a2.051,2.051,0,0,1,1.429.491,1.708,1.708,0,0,1,.544,1.335,1.8,1.8,0,0,1-.526,1.31,1.986,1.986,0,0,1-1.483.537h-1.392v2.331Zm.826-3.03h1.228a1.522,1.522,0,0,0,.989-.292,1.042,1.042,0,0,0,.358-.856,1.03,1.03,0,0,0-.345-.837,1.375,1.375,0,0,0-.915-.29h-1.314Z" transform="translate(-401.837 -1652.746)" fill="#fbb03b"/>
      <path id="Caminho_78" data-name="Caminho 78" d="M434.012,1658.861v-6h2.2a2.1,2.1,0,0,1,1.432.48,1.685,1.685,0,0,1,.551,1.342,1.809,1.809,0,0,1-.344,1.095,1.678,1.678,0,0,1-1.007.632l1.66,2.455h-.918l-1.593-2.356h-1.15v2.356Zm.826-3.055h1.236a1.485,1.485,0,0,0,.977-.287,1.04,1.04,0,0,0,.345-.848,1,1,0,0,0-.353-.841,1.579,1.579,0,0,0-.986-.273h-1.219Z" transform="translate(-404.682 -1652.746)" fill="#fbb03b"/>
      <path id="Caminho_79" data-name="Caminho 79" d="M443.953,1658.857v-6.012h3.956v.732H444.78v1.818h2.677v.732H444.78v2h3.154v.732Z" transform="translate(-407.601 -1652.743)" fill="#fbb03b"/>
      <path id="Caminho_80" data-name="Caminho 80" d="M458.839,1658.857v-6.012H462.8v.732h-3.13v1.818h2.677v.732h-2.677v2h3.155v.732Z" transform="translate(-411.971 -1652.743)" fill="#fbb03b"/>
      <path id="Caminho_81" data-name="Caminho 81" d="M468.437,1658.861v-6h1.007l1.772,3.705h.016l1.724-3.705h1.016v6h-.794v-4.548l-.056-.019-1.628,3.394-.611.016-1.629-3.376h-.024v4.533Z" transform="translate(-414.789 -1652.746)" fill="#fbb03b"/>
      <path id="Caminho_82" data-name="Caminho 82" d="M485.786,1658.857v-6.012h3.865v.732h-3.039v1.855h2.542v.733h-2.542v2.693Z" transform="translate(-419.883 -1652.743)" fill="#fbb03b"/>
      <path id="Caminho_83" data-name="Caminho 83" d="M494.929,1658.861v-6h2.2a2.1,2.1,0,0,1,1.432.48,1.684,1.684,0,0,1,.551,1.342,1.814,1.814,0,0,1-.344,1.095,1.679,1.679,0,0,1-1.007.632l1.66,2.455H498.5l-1.593-2.356h-1.15v2.356Zm.826-3.055h1.236a1.485,1.485,0,0,0,.977-.287,1.04,1.04,0,0,0,.345-.848,1,1,0,0,0-.353-.841,1.579,1.579,0,0,0-.986-.273h-1.219Z" transform="translate(-422.568 -1652.746)" fill="#fbb03b"/>
      <path id="Caminho_84" data-name="Caminho 84" d="M504.87,1658.857v-6.012h3.956v.732H505.7v1.818h2.678v.732H505.7v2h3.155v.732Z" transform="translate(-425.487 -1652.743)" fill="#fbb03b"/>
      <path id="Caminho_85" data-name="Caminho 85" d="M514.468,1658.857v-6.012h.805l2.934,4.594h.031v-4.594h.794v6.012h-.819l-2.948-4.63h0v4.63Z" transform="translate(-428.305 -1652.743)" fill="#fbb03b"/>
      <path id="Caminho_86" data-name="Caminho 86" d="M526.4,1658.861v-5.3h-1.879v-.7H529.1v.7h-1.867v5.3Z" transform="translate(-431.257 -1652.746)" fill="#fbb03b"/>
      <path id="Caminho_87" data-name="Caminho 87" d="M534.611,1658.857v-6.012h3.956v.732h-3.13v1.818h2.677v.732h-2.677v2h3.155v.732Z" transform="translate(-434.219 -1652.743)" fill="#fbb03b"/>
    </g>
  </g>
</svg>
