<svg xmlns="http://www.w3.org/2000/svg" width="152.471" height="103.738" viewBox="0 0 152.471 103.738">
  <g id="Grupo_10063" data-name="Grupo 10063" transform="matrix(0.996, 0.087, -0.087, 0.996, -246.688, -901.188)">
    <g id="Grupo_10059" data-name="Grupo 10059" transform="translate(387.374 892.438)">
      <path id="Caminho_3926" data-name="Caminho 3926" d="M536.692,1063.735l3.11-2-.3,3.689,2.865,2.342-3.6.85-1.34,3.448L535.5,1068.9l-3.7-.211,2.415-2.8-.939-3.58Z" transform="translate(-517.512 -1014.367)" fill="#fbb03b"/>
      <path id="Caminho_3927" data-name="Caminho 3927" d="M505.8,1066.283l2.03-1.306-.2,2.408,1.871,1.529-2.353.554-.875,2.251-1.254-2.065-2.413-.137,1.576-1.831-.613-2.337Z" transform="translate(-498.61 -1016.467)" fill="#fbb03b"/>
      <path id="Caminho_3928" data-name="Caminho 3928" d="M573.519,1060.359l2.031-1.306-.2,2.408,1.87,1.529-2.352.554-.876,2.251-1.253-2.065-2.413-.137,1.577-1.831-.614-2.337Z" transform="translate(-542.454 -1012.631)" fill="#fbb03b"/>
      <path id="Caminho_3929" data-name="Caminho 3929" d="M525.065,935.713l-3.111,2,.3-3.689-2.865-2.342,3.6-.85,1.341-3.448,1.919,3.163,3.7.211-2.415,2.8.938,3.58Z" transform="translate(-509.475 -927.386)" fill="#fbb03b"/>
      <path id="Caminho_3930" data-name="Caminho 3930" d="M562.689,939.749l-2.031,1.306.2-2.408-1.871-1.529,2.353-.555.875-2.251,1.254,2.064,2.412.138-1.576,1.83.613,2.337Z" transform="translate(-535.109 -931.87)" fill="#fbb03b"/>
      <path id="Caminho_3931" data-name="Caminho 3931" d="M494.969,945.673l-2.031,1.306.2-2.408-1.87-1.529,2.352-.555.876-2.251,1.252,2.065,2.413.138-1.577,1.83.613,2.337Z" transform="translate(-491.265 -935.706)" fill="#fbb03b"/>
    </g>
    <path id="Caminho_3932" data-name="Caminho 3932" d="M366.329,997.2l2.665,30.462-35.53,3.109,1.694-3.633,5.767-12.368-7.827-11.178-2.3-3.284Z" transform="translate(0 -80.146)" fill="#bf0000"/>
    <path id="Caminho_3933" data-name="Caminho 3933" d="M681.728,996.814l2.3,3.284-35.53,3.109-2.665-30.462,35.53-3.109-1.694,3.633L673.9,985.636Z" transform="translate(-203.963 -62.301)" fill="#bf0000"/>
    <path id="Caminho_3934" data-name="Caminho 3934" d="M401.2,1056.392l-15.9-6.36,14.572-8.871Z" transform="translate(-35.284 -108.61)" fill="#7f0000"/>
    <path id="Caminho_3935" data-name="Caminho 3935" d="M658.339,1020.889l1.333,15.231,14.558-9.025" transform="translate(-212.06 -95.485)" fill="#7f0000"/>
    <path id="Caminho_3936" data-name="Caminho 3936" d="M448.481,873.592a47.875,47.875,0,1,0,51.866,43.521A47.874,47.874,0,0,0,448.481,873.592Zm7.066,80.77a33.2,33.2,0,1,1,30.183-35.971C486.886,931.6,473.816,952.764,455.547,954.362Z" transform="translate(-47.895)"/>
    <rect id="Retângulo_55" data-name="Retângulo 55" width="112.585" height="30.578" transform="translate(347.348 910.961) rotate(-5)" fill="#e50000"/>
    <g id="Grupo_10060" data-name="Grupo 10060" transform="translate(354.603 905.885)">
      <path id="Caminho_3937" data-name="Caminho 3937" d="M428.5,994.866l-.191-.235a5.068,5.068,0,0,1-1.958.566,5.026,5.026,0,0,1-.922-10c2.848-.263,4.949,1.561,5.225,4.561a5.281,5.281,0,0,1-.63,3.216l1.39,1.624Zm-1.623-2.026-1.3-1.619L428.01,991a4.712,4.712,0,0,0,.013-1c-.158-1.711-1.131-2.775-2.4-2.658-1.295.12-2.057,1.344-1.9,3.055s1.131,2.776,2.425,2.656A1.96,1.96,0,0,0,426.874,992.84Z" transform="translate(-413.037 -978.245)" fill="#fbb03b"/>
      <path id="Caminho_3938" data-name="Caminho 3938" d="M453.08,988.726l-.575-6.237,2.55-.235.564,6.119a1.506,1.506,0,1,0,2.991-.276l-.564-6.119,2.563-.237.575,6.237c.2,2.184-1.283,3.781-3.717,4.005S453.282,990.911,453.08,988.726Z" transform="translate(-433.399 -976.024)" fill="#fbb03b"/>
      <path id="Caminho_3939" data-name="Caminho 3939" d="M487.409,988.193l-3.133.289-.311,1.448-2.731.252,2.649-10.064,2.369-.218,4.445,9.41-2.732.252Zm-.858-2.084-1.177-2.851-.635,3.018Z" transform="translate(-451.999 -974.832)" fill="#fbb03b"/>
      <path id="Caminho_3940" data-name="Caminho 3940" d="M516.68,985.165l.2,2.145-6.046.558-.9-9.737,2.563-.237.7,7.593Z" transform="translate(-470.581 -973.533)" fill="#fbb03b"/>
      <path id="Caminho_3941" data-name="Caminho 3941" d="M532.3,976.068l2.563-.236.9,9.737-2.564.236Z" transform="translate(-485.059 -972.198)" fill="#fbb03b"/>
      <path id="Caminho_3942" data-name="Caminho 3942" d="M555.371,978.572c.271,2.934-1.335,5.06-4.028,5.308l-3.793.35-.9-9.737,3.793-.35C553.138,973.895,555.1,975.664,555.371,978.572Zm-2.641.244c-.149-1.619-.948-2.633-2.01-2.535l-1.307.12.5,5.448,1.308-.121C552.285,981.63,552.882,980.461,552.73,978.816Z" transform="translate(-494.353 -971.09)" fill="#fbb03b"/>
      <path id="Caminho_3943" data-name="Caminho 3943" d="M581.041,979.556l-3.133.289-.31,1.448-2.732.252,2.649-10.064,2.369-.218,4.445,9.41-2.732.252Zm-.858-2.084-1.177-2.851-.636,3.018Z" transform="translate(-512.62 -969.24)" fill="#fbb03b"/>
      <path id="Caminho_3944" data-name="Caminho 3944" d="M612.286,973.322c.271,2.934-1.335,5.06-4.028,5.308l-3.793.35-.9-9.737,3.793-.35C610.052,968.645,612.018,970.414,612.286,973.322Zm-2.641.244c-.15-1.619-.948-2.633-2.009-2.535l-1.308.121.5,5.447,1.308-.12C609.2,976.381,609.8,975.211,609.645,973.566Z" transform="translate(-531.202 -967.691)" fill="#fbb03b"/>
      <path id="Caminho_3945" data-name="Caminho 3945" d="M640.121,973.11l.2,2.145-6.59.608-.9-9.737,6.512-.6.2,2.145-3.949.364.148,1.606,3.482-.321.2,2.145-3.482.321.157,1.7Z" transform="translate(-550.148 -965.525)" fill="#fbb03b"/>
      <path id="Caminho_3946" data-name="Caminho 3946" d="M398.343,1031.629a4.636,4.636,0,0,1,4.359-5.4,4.452,4.452,0,0,1,3.716,1.223l-1.451,1.819a2.186,2.186,0,0,0-2.054-.9c-1.32.122-2.082,1.346-1.926,3.044.159,1.724,1.171,2.785,2.53,2.66a2.227,2.227,0,0,0,1.952-1.627l1.853,1.408a4.37,4.37,0,0,1-3.672,2.369A4.706,4.706,0,0,1,398.343,1031.629Z" transform="translate(-398.314 -1004.807)" fill="#fff"/>
      <path id="Caminho_3947" data-name="Caminho 3947" d="M425.966,1029.126a4.651,4.651,0,0,1,4.342-5.443c2.848-.263,4.949,1.561,5.225,4.561s-1.455,5.177-4.3,5.44A4.651,4.651,0,0,1,425.966,1029.126Zm6.939-.64c-.158-1.71-1.131-2.775-2.4-2.658-1.295.12-2.057,1.344-1.9,3.055s1.131,2.775,2.426,2.656C432.3,1031.422,433.063,1030.2,432.905,1028.486Z" transform="translate(-416.198 -1003.162)" fill="#fff"/>
      <path id="Caminho_3948" data-name="Caminho 3948" d="M467.08,1029.679l-.729-5.068-1.408,5.265-1.333.123-2.345-4.893.209,5.09-2.564.236-.238-9.8,2.874-.265,2.326,5.253,1.338-5.591,2.874-.265,1.558,9.676Z" transform="translate(-437.393 -1000.643)" fill="#fff"/>
      <path id="Caminho_3949" data-name="Caminho 3949" d="M500.973,1020.982a3.334,3.334,0,0,1-3.226,3.814l-1.074.1.272,2.948-2.563.236-.9-9.737,3.78-.349A3.179,3.179,0,0,1,500.973,1020.982Zm-2.62.335c-.069-.75-.517-1.213-1.151-1.154l-.958.089.231,2.5.958-.088C498.132,1022.6,498.422,1022.066,498.353,1021.316Z" transform="translate(-459.93 -999.482)" fill="#fff"/>
      <path id="Caminho_3950" data-name="Caminho 3950" d="M523.238,1022.122l-.815.075.3,3.237-2.564.236-.9-9.737,3.974-.367a3.124,3.124,0,0,1,3.628,2.943,3.041,3.041,0,0,1-1.166,2.788l2.528,3.628-2.99.276Zm-1.013-2.07.893-.083a1.111,1.111,0,0,0,1.115-1.218.986.986,0,0,0-1.073-1.015l-1.139.105Z" transform="translate(-476.618 -997.911)" fill="#fff"/>
      <path id="Caminho_3951" data-name="Caminho 3951" d="M546.475,1018.01a4.651,4.651,0,0,1,4.343-5.443c2.848-.263,4.949,1.56,5.225,4.56s-1.455,5.177-4.3,5.44A4.651,4.651,0,0,1,546.475,1018.01Zm6.94-.64c-.158-1.71-1.131-2.775-2.4-2.658-1.295.12-2.057,1.344-1.9,3.055s1.131,2.775,2.425,2.656C552.811,1020.305,553.573,1019.081,553.415,1017.37Z" transform="translate(-494.22 -995.965)" fill="#fff"/>
      <path id="Caminho_3952" data-name="Caminho 3952" d="M574.447,1009.947l2.731-.252,2.6,6.276,1.4-6.644,2.732-.252-2.649,10.064-2.37.218Z" transform="translate(-512.349 -993.72)" fill="#fff"/>
      <path id="Caminho_3953" data-name="Caminho 3953" d="M609.24,1015.89l-3.133.289-.31,1.448-2.732.252,2.649-10.064,2.369-.219,4.446,9.41-2.732.252Zm-.858-2.084-1.177-2.851-.636,3.018Z" transform="translate(-530.877 -992.764)" fill="#fff"/>
      <path id="Caminho_3954" data-name="Caminho 3954" d="M640.485,1009.657c.271,2.934-1.335,5.06-4.028,5.308l-3.793.35-.9-9.737,3.793-.35C638.251,1004.98,640.216,1006.75,640.485,1009.657Zm-2.641.244c-.149-1.619-.948-2.633-2.01-2.535l-1.308.121.5,5.447,1.308-.121C637.4,1012.715,637.995,1011.546,637.844,1009.9Z" transform="translate(-549.458 -991.215)" fill="#fff"/>
      <path id="Caminho_3955" data-name="Caminho 3955" d="M666.155,1010.64l-3.133.289-.31,1.448-2.732.252,2.649-10.064,2.369-.219,4.446,9.41-2.732.252Zm-.859-2.084-1.177-2.851-.635,3.018Z" transform="translate(-567.725 -989.365)" fill="#fff"/>
    </g>
    <g id="Grupo_10061" data-name="Grupo 10061" transform="translate(377.01 876.478)">
      <path id="Caminho_3956" data-name="Caminho 3956" d="M469.754,904.169c1.568,2.331,1.3,4.766-.76,6.155-2.127,1.431-4.584.826-6.152-1.505s-1.223-4.821.924-6.266a4.318,4.318,0,0,1,2.991-.809l-.329,1.5a2.326,2.326,0,0,0-1.864.452c-1.268.853-1.381,2.518-.28,4.154s2.675,2.166,3.943,1.313a2.345,2.345,0,0,0,.543-3.321l-1.7,1.142-.777-1.155,3.129-2.1A4.231,4.231,0,0,1,469.754,904.169Z" transform="translate(-461.87 -894.805)" fill="#fff"/>
      <path id="Caminho_3957" data-name="Caminho 3957" d="M496.577,893.552l-1.443.461,1.027,3.216-1.608.514-2.775-8.686,3.263-1.043a2.756,2.756,0,0,1,3.7,1.831,2.7,2.7,0,0,1-.687,2.871l3.211,2.881-1.867.6Zm-1.867-.865,1.35-.432a1.44,1.44,0,0,0,1.04-1.885,1.371,1.371,0,0,0-1.811-.973l-1.479.472Z" transform="translate(-481.233 -885.82)" fill="#fff"/>
      <path id="Caminho_3958" data-name="Caminho 3958" d="M526.041,888.342l-.188-6,1.675-.053.185,5.925a1.947,1.947,0,0,0,3.893-.121l-.185-5.925,1.675-.052.187,6c.061,1.946-1.341,3.285-3.521,3.353S526.1,890.288,526.041,888.342Z" transform="translate(-503.295 -882.117)" fill="#fff"/>
      <path id="Caminho_3959" data-name="Caminho 3959" d="M565.257,888.579a2.888,2.888,0,0,1-3.707,2.24l-1.5-.366-.744,3.041-1.64-.4,2.167-8.859,3.208.785A2.8,2.8,0,0,1,565.257,888.579Zm-1.7-.353a1.436,1.436,0,0,0-1.008-1.9l-1.4-.343-.762,3.112,1.4.343A1.417,1.417,0,0,0,563.554,888.226Z" transform="translate(-523.894 -883.488)" fill="#fff"/>
      <path id="Caminho_3960" data-name="Caminho 3960" d="M587.218,900.264c1.4-2.436,3.84-3.193,6.105-1.891,2.244,1.29,2.816,3.78,1.416,6.215s-3.841,3.193-6.084,1.9C586.39,905.189,585.817,902.7,587.218,900.264Zm6.014,3.458c.983-1.709.743-3.368-.6-4.142-1.368-.786-2.922-.159-3.9,1.55s-.743,3.368.625,4.154C590.694,906.058,592.249,905.431,593.232,903.722Z" transform="translate(-542.533 -892.234)" fill="#fff"/>
    </g>
    <g id="Grupo_10062" data-name="Grupo 10062" transform="translate(371.704 941.991)">
      <path id="Caminho_3961" data-name="Caminho 3961" d="M453.376,1080.4l-1.255-1.332-4.213,3.97-1.087-1.154,4.213-3.971-1.254-1.332.983-.927,3.6,3.818Z" transform="translate(-446.821 -1072.932)" fill="#fff"/>
      <path id="Caminho_3962" data-name="Caminho 3962" d="M462.142,1098.553l-2.022-1.509-1.049.747-1.353-1.01,6.368-4.157,1.173.875-2.181,7.283-1.353-1.01Zm.454-1.346.864-2.522-2.179,1.54Z" transform="translate(-453.876 -1083.918)" fill="#fff"/>
      <path id="Caminho_3963" data-name="Caminho 3963" d="M486.422,1111.271l1.506-3.975-3.148,3.26-.774-.337.235-4.486-1.877,3.771-1.454-.633,3.271-6.384,1.626.708-.339,4.725,3.229-3.467,1.625.708-2.446,6.744Z" transform="translate(-468.891 -1090.304)" fill="#fff"/>
      <path id="Caminho_3964" data-name="Caminho 3964" d="M514.42,1119.287l-2.485-.44-.6,1.138-1.663-.294,3.822-6.574,1.441.255,1.325,7.485-1.663-.295Zm-.2-1.407-.362-2.641-1.255,2.354Z" transform="translate(-487.511 -1097.186)" fill="#fff"/>
      <path id="Caminho_3965" data-name="Caminho 3965" d="M537.192,1114.867l.975-.044,3.835,3.989-.226-4.153,1.575-.072.324,7.133-.965.044-3.835-3.989.226,4.153-1.584.072Z" transform="translate(-505.33 -1098.138)" fill="#fff"/>
      <path id="Caminho_3966" data-name="Caminho 3966" d="M568.4,1113.707c.571,2.064-.275,3.791-2.129,4.3l-2.514.7-1.9-6.882,2.514-.7C566.218,1110.616,567.826,1111.643,568.4,1113.707Zm-1.583.438c-.355-1.283-1.177-1.967-2.063-1.722l-1.013.281,1.184,4.278,1.013-.28C566.821,1116.456,567.172,1115.438,566.814,1114.145Z" transform="translate(-521.295 -1095.815)" fill="#fff"/>
      <path id="Caminho_3967" data-name="Caminho 3967" d="M592.366,1107.317l-2.241,1.161.214,1.269-1.5.777-.959-7.544,1.3-.673,5.6,5.141-1.5.777Zm-1.013-1-1.892-1.878.434,2.633Z" transform="translate(-538.147 -1090.187)" fill="#fff"/>
      <path id="Caminho_3968" data-name="Caminho 3968" d="M607.389,1093.535l-.671.543,1.572,1.943-1.232,1-4.491-5.551,2.137-1.729a2.2,2.2,0,0,1,3.28.325,2.18,2.18,0,0,1,.392,2.215l3.051,1.205-1.444,1.169Zm-1.521-.507.656-.531a.947.947,0,0,0,.189-1.407.872.872,0,0,0-1.292-.2l-.773.625Z" transform="translate(-547.655 -1081.672)" fill="#fff"/>
      <path id="Caminho_3969" data-name="Caminho 3969" d="M619.834,1070.229l-.837.988-.463-1.931,1.147-1.353Zm6.246,2.689,1.03.874-2.968,3.5-5.445-4.619,2.926-3.449,1.03.874-1.9,2.24,1.148.973,1.7-2,1.03.874-1.7,2,1.207,1.024Z" transform="translate(-557.994 -1067.933)" fill="#fff"/>
    </g>
  </g>
</svg>
